<svg width="327" height="555" viewBox="0 0 327 555" fill="none" xmlns="http://www.w3.org/2000/svg">
<g clip-path="url(#clip0_305_2000)">
<path d="M150.871 457.365L158.834 457.364L162.622 427.546L150.869 427.547L150.871 457.365Z" fill="#FFB6B6"/>
<path d="M178.154 457.19C178.402 457.595 178.532 458.904 178.532 459.375C178.532 460.824 177.322 461.999 175.83 461.999H151.168C150.15 461.999 149.325 461.197 149.325 460.209V459.212C149.325 459.212 148.105 456.216 150.616 452.524C150.616 452.524 153.738 455.415 158.403 450.887L159.778 448.468L169.735 455.537L175.254 456.197C176.462 456.341 177.533 456.174 178.154 457.19Z" fill="#2F2E41"/>
<path d="M120.654 457.365L128.617 457.364L132.405 427.546L120.652 427.547L120.654 457.365Z" fill="#FFB6B6"/>
<path d="M147.937 457.19C148.185 457.595 148.316 458.904 148.316 459.375C148.316 460.824 147.106 461.999 145.613 461.999H120.952C119.933 461.999 119.108 461.197 119.108 460.209V459.212C119.108 459.212 117.888 456.216 120.4 452.524C120.4 452.524 123.521 455.415 128.186 450.887L129.561 448.468L139.519 455.537L145.038 456.197C146.245 456.341 147.316 456.174 147.937 457.19Z" fill="#2F2E41"/>
<path d="M114.789 297.191L104.717 319.354L117.475 440.602L133.255 441.58L139.634 334.347L145.678 441.906L164.479 439.95L168.939 303.409L114.789 297.191Z" fill="#2F2E41"/>
<path d="M154.473 208.863L134.262 205.277L130.18 209.24L109.417 217.663L112.775 280.894C112.775 280.894 106.06 285.237 109.417 291.214C112.775 297.191 112.103 304.361 112.103 304.361H168.939L166.494 268.509L173.208 222.878L157.518 215.667L154.473 208.863Z" fill="#007BFF"/>
<path d="M145.636 203.427C155.439 203.427 163.386 195.713 163.386 186.196C163.386 176.68 155.439 168.965 145.636 168.965C135.834 168.965 127.887 176.68 127.887 186.196C127.887 195.713 135.834 203.427 145.636 203.427Z" fill="#FFB6B6"/>
<path d="M132.906 201.493C130.78 201.677 127.309 196.396 127.463 191.282C127.563 187.992 124.621 187.345 124.402 183.103C124.275 180.63 128.186 179.859 128.455 177.876C128.942 174.284 131.33 171.866 131.628 171.572C134.201 169.035 136.017 169.86 139.043 166.919C140.865 165.149 140.398 164.664 141.625 163.879C145.166 161.613 151.529 164.069 155.334 167.377C156.651 168.522 161.559 167.271 163.703 170.504C166.229 174.313 165.642 182.081 164.559 183.106C163.901 183.729 162.398 182.207 158.325 181.23C154.554 180.326 158.111 184.798 153.752 184.047C148.596 183.16 147.587 181.637 145.656 182.55C143.615 183.516 142.021 186.505 142.484 188.855C142.713 190.021 143.379 190.671 143.004 191.264C142.318 192.347 141.532 191.285 140.652 192.371C139.629 193.635 142.171 196.877 141.692 197.19C141.596 197.253 141.304 197.245 138.561 194.683C137.465 193.66 137.144 193.032 136.93 193.129C136.583 193.285 134.308 195.342 135.177 196.966C136.528 199.493 134.799 199.572 135.177 201.273C135.567 203.029 134.258 201.375 132.906 201.493Z" fill="#2F2E41"/>
<path d="M151.774 285.212C146.541 287.863 143.708 292.634 145.447 295.867C147.186 299.1 152.837 299.57 158.072 296.917C160.178 295.885 161.999 294.378 163.382 292.523L185.409 281.016L179.627 271.096L158.526 283.493C156.166 283.535 153.851 284.124 151.774 285.212Z" fill="#FFB6B6"/>
<path d="M169.18 223.53C169.18 223.53 175.223 219.618 179.252 230.048C182.43 238.277 188.325 262.531 190.672 272.403C191.295 275.024 190.394 277.762 188.323 279.549L185.631 281.872L172.537 291.324L163.609 278.712L174.452 272.366L162.087 246.325L169.18 223.53Z" fill="#007BFF"/>
<path d="M169.42 277.462V264.094C169.42 263.323 170.066 262.696 170.86 262.696H177.524C178.318 262.696 178.964 263.323 178.964 264.094V277.462C178.964 278.232 178.318 278.86 177.524 278.86H170.86C170.066 278.86 169.42 278.232 169.42 277.462Z" fill="#007BFF"/>
<path d="M264.645 255.947C275.545 255.947 284.382 247.369 284.382 236.787C284.382 226.205 275.545 217.627 264.645 217.627C253.745 217.627 244.908 226.205 244.908 236.787C244.908 247.369 253.745 255.947 264.645 255.947Z" fill="#FF6884"/>
<path d="M245.154 358.289L222.851 358.588L213.91 261.8C213.693 259.451 214.474 257.076 216.054 255.284L237.985 230.411C241.055 226.93 246.275 226.302 250.127 228.951L277.595 247.844C279.835 249.385 281.224 251.795 281.404 254.455L301.454 319.847L298.765 341.655L298.791 341.685L301.97 357.529L245.154 358.289Z" fill="#E6E6E6"/>
<path d="M240.482 252.916L240.123 248.424C240.028 247.238 240.945 246.199 242.166 246.106L248.668 245.617C249.89 245.525 250.96 246.414 251.055 247.6L251.414 252.093C251.509 253.278 250.592 254.318 249.371 254.41L242.869 254.9C241.648 254.992 240.577 254.102 240.482 252.916Z" fill="#007BFF"/>
<path d="M229.527 288.821L228.198 272.2C228.103 271.015 229.02 269.975 230.241 269.883L239.866 269.158C241.088 269.066 242.159 269.956 242.253 271.142L243.582 287.763C243.677 288.948 242.76 289.988 241.539 290.08L231.914 290.805C230.692 290.897 229.622 290.007 229.527 288.821Z" fill="#3F3D56"/>
<path d="M254.394 326.088C253.227 326.136 252.216 325.29 252.091 324.163L250.32 308.135C250.245 307.451 250.499 306.79 251.019 306.323C251.539 305.855 252.237 305.66 252.934 305.784L253.431 305.873C254.419 306.051 255.164 306.855 255.241 307.827L256.516 323.766C256.563 324.355 256.366 324.923 255.963 325.365C255.577 325.787 255.051 326.04 254.475 326.083C254.448 326.086 254.421 326.087 254.394 326.088Z" fill="#3F3D56"/>
<path d="M234.022 325.393L232.689 308.724C232.595 307.547 233.469 306.531 234.678 306.411L243.41 305.545C244.621 305.437 245.715 306.284 245.845 307.462L247.698 324.3C247.763 324.885 247.585 325.456 247.197 325.908C246.81 326.36 246.265 326.634 245.661 326.68L236.409 327.377C235.187 327.469 234.116 326.579 234.022 325.393Z" fill="#3F3D56"/>
<path d="M286.64 332.888L294.442 344.205L296.293 357.454L301.78 357.379L298.646 341.753L286.189 327.439C285.354 329.208 285.525 331.271 286.64 332.888Z" fill="#CCCCCC"/>
<path d="M295.77 353.662L273.539 355.634L273.568 355.936L295.798 353.964L295.77 353.662Z" fill="#3F3D56"/>
<path d="M294.206 351.087L273.118 352.837L273.145 353.14L294.232 351.39L294.206 351.087Z" fill="#3F3D56"/>
<path d="M292.892 348.435L272.739 350.338L272.77 350.641L292.922 348.738L292.892 348.435Z" fill="#3F3D56"/>
<path d="M292.048 345.763L272.715 347.848L272.75 348.15L292.083 346.065L292.048 345.763Z" fill="#3F3D56"/>
<path d="M290.917 343.412L272.346 345.45L272.381 345.753L290.953 343.714L290.917 343.412Z" fill="#3F3D56"/>
<path d="M289.503 341.374L271.365 342.741L271.389 343.044L289.527 341.677L289.503 341.374Z" fill="#3F3D56"/>
<path d="M288.394 339.317L270.782 340.846L270.81 341.149L288.422 339.62L288.394 339.317Z" fill="#3F3D56"/>
<path d="M287.284 337.267L270.247 339.105L270.282 339.407L287.318 337.57L287.284 337.267Z" fill="#3F3D56"/>
<path d="M286.493 335.203L269.649 336.761L269.679 337.064L286.523 335.506L286.493 335.203Z" fill="#3F3D56"/>
<path d="M285.073 333.197L268.962 334.904L268.996 335.206L285.107 333.5L285.073 333.197Z" fill="#3F3D56"/>
<path d="M284.304 331.394L268.309 332.752L268.336 333.055L284.332 331.697L284.304 331.394Z" fill="#3F3D56"/>
<path d="M266.628 326.445L264.984 305.882C264.889 304.696 265.806 303.656 267.027 303.564L277.277 302.792C278.498 302.7 279.569 303.59 279.664 304.776L281.308 325.339C281.403 326.524 280.486 327.564 279.265 327.656L269.015 328.428C267.793 328.52 266.723 327.63 266.628 326.445Z" fill="#007BFF"/>
<path d="M245.154 358.29L226.92 358.535L226.773 358.537L225.683 344.905C225.546 343.181 226.878 341.669 228.654 341.535L246.576 340.185C248.351 340.052 249.908 341.345 250.046 343.069L251.226 357.832L251.07 357.844L245.154 358.29Z" fill="#CCCCCC"/>
<path d="M264.896 289.055L263.64 273.343C263.545 272.158 264.461 271.118 265.683 271.026L269.061 270.771C270.283 270.679 271.353 271.569 271.448 272.755L272.704 288.467C272.799 289.652 271.882 290.692 270.661 290.784L267.283 291.038C266.061 291.13 264.99 290.24 264.896 289.055Z" fill="#3F3D56"/>
<path d="M273.836 357.654L271.833 344.383L268.003 331.86L266.944 328.432C265.254 327.493 263.188 328.834 263.435 330.708L263.631 332.189L267.46 344.713L269.463 357.984" fill="#CCCCCC"/>
<path d="M49.3887 360.736L27.086 361.034L18.1445 264.246C17.9275 261.897 18.7092 259.522 20.2892 257.73L42.2197 232.857C45.2897 229.376 50.5095 228.748 54.3619 231.397L81.8294 250.29C84.0702 251.831 85.4589 254.241 85.639 256.901L105.689 322.293L103 344.101L103.026 344.131L106.204 359.975L49.3887 360.736Z" fill="#E6E6E6"/>
<path d="M44.7171 255.362L44.3579 250.87C44.2631 249.684 45.1798 248.644 46.4012 248.552L52.9029 248.062C54.1244 247.97 55.1951 248.86 55.2899 250.046L55.649 254.538C55.7438 255.724 54.8273 256.764 53.6059 256.856L47.1042 257.346C45.8827 257.438 44.8119 256.548 44.7171 255.362Z" fill="#007BFF"/>
<path d="M33.7616 291.267L32.4329 274.647C32.3381 273.461 33.2547 272.421 34.4762 272.329L44.1013 271.604C45.3228 271.512 46.3935 272.402 46.4883 273.588L47.817 290.209C47.9118 291.394 46.9953 292.434 45.7739 292.526L36.1487 293.251C34.9273 293.343 33.8564 292.453 33.7616 291.267Z" fill="#3F3D56"/>
<path d="M58.6287 328.534C57.4621 328.582 56.4508 327.736 56.326 326.609L54.5551 310.581C54.4795 309.897 54.7343 309.237 55.2542 308.769C55.7741 308.301 56.472 308.106 57.169 308.23L57.6658 308.319C58.654 308.497 59.3985 309.301 59.4763 310.273L60.7505 326.212C60.7975 326.801 60.6011 327.369 60.1975 327.811C59.8118 328.233 59.2859 328.486 58.7094 328.53C58.6826 328.532 58.6557 328.533 58.6287 328.534Z" fill="#3F3D56"/>
<path d="M38.2564 327.839L36.9238 311.17C36.8297 309.993 37.7036 308.977 38.9131 308.857L47.6448 307.991C48.8561 307.883 49.9502 308.73 50.0801 309.908L51.9331 326.746C51.9974 327.331 51.8196 327.902 51.4323 328.354C51.0453 328.806 50.4995 329.08 49.8957 329.125L40.6435 329.823C39.4221 329.915 38.3512 329.025 38.2564 327.839Z" fill="#3F3D56"/>
<path d="M90.8746 335.334L98.6773 346.651L100.528 359.9L106.015 359.825L102.88 344.199L90.4241 329.885C89.5892 331.654 89.7597 333.717 90.8746 335.334Z" fill="#CCCCCC"/>
<path d="M100.004 356.107L77.7742 358.079L77.8027 358.382L100.033 356.41L100.004 356.107Z" fill="#3F3D56"/>
<path d="M98.4405 353.533L77.3531 355.283L77.3798 355.586L98.4672 353.836L98.4405 353.533Z" fill="#3F3D56"/>
<path d="M97.1269 350.881L76.9741 352.784L77.0045 353.087L97.1573 351.184L97.1269 350.881Z" fill="#3F3D56"/>
<path d="M96.2828 348.209L76.9502 350.294L76.9848 350.596L96.3175 348.511L96.2828 348.209Z" fill="#3F3D56"/>
<path d="M95.1521 345.858L76.5804 347.896L76.6157 348.199L95.1874 346.16L95.1521 345.858Z" fill="#3F3D56"/>
<path d="M93.7376 343.82L75.5995 345.187L75.6237 345.49L93.7618 344.123L93.7376 343.82Z" fill="#3F3D56"/>
<path d="M92.6286 341.763L75.0172 343.292L75.0451 343.595L92.6565 342.066L92.6286 341.763Z" fill="#3F3D56"/>
<path d="M91.5186 339.713L74.4819 341.551L74.5165 341.853L91.5532 340.016L91.5186 339.713Z" fill="#3F3D56"/>
<path d="M90.7278 337.649L73.884 339.208L73.9138 339.51L90.7575 337.952L90.7278 337.649Z" fill="#3F3D56"/>
<path d="M89.3081 335.643L73.1973 337.35L73.2313 337.652L89.3421 335.945L89.3081 335.643Z" fill="#3F3D56"/>
<path d="M88.5391 333.84L72.5437 335.198L72.571 335.501L88.5664 334.143L88.5391 333.84Z" fill="#3F3D56"/>
<path d="M70.8626 328.891L69.2188 308.328C69.124 307.142 70.0406 306.102 71.2621 306.01L81.5119 305.238C82.7333 305.146 83.8041 306.036 83.8989 307.222L85.5427 327.785C85.6375 328.97 84.721 330.01 83.4996 330.102L73.2498 330.874C72.0283 330.966 70.9574 330.076 70.8626 328.891Z" fill="#007BFF"/>
<path d="M49.3887 360.735L31.155 360.98L31.008 360.982L29.9182 347.351C29.7804 345.627 31.113 344.115 32.8889 343.981L50.8104 342.631C52.5862 342.497 54.1431 343.791 54.2809 345.515L55.4611 360.278L55.305 360.29L49.3887 360.735Z" fill="#CCCCCC"/>
<path d="M69.1304 291.501L67.8744 275.789C67.7796 274.604 68.6963 273.564 69.9177 273.472L73.296 273.217C74.5174 273.125 75.5882 274.015 75.683 275.201L76.939 290.913C77.0338 292.098 76.1173 293.138 74.8958 293.23L71.5176 293.484C70.2961 293.576 69.2252 292.687 69.1304 291.501Z" fill="#3F3D56"/>
<path d="M78.071 360.1L76.0674 346.829L72.2382 334.306L71.1786 330.878C69.4893 329.939 67.4227 331.28 67.67 333.154L67.8654 334.635L71.6946 347.159L73.6982 360.43" fill="#CCCCCC"/>
<path d="M166.992 359.298L144.69 359.596L135.749 262.808C135.532 260.459 136.313 258.084 137.893 256.292L159.824 231.419C162.894 227.937 168.113 227.31 171.966 229.96L199.433 248.852C201.674 250.393 213.729 259.14 213.91 261.8L208.181 328.388L220.604 342.663L220.63 342.693L223.808 358.537L166.992 359.298Z" fill="#E6E6E6"/>
<path d="M162.321 253.924L161.962 249.432C161.867 248.246 162.784 247.206 164.006 247.114L170.507 246.624C171.729 246.532 172.799 247.422 172.894 248.608L173.253 253.1C173.348 254.286 172.431 255.326 171.21 255.418L164.708 255.908C163.487 256 162.416 255.11 162.321 253.924Z" fill="#007BFF"/>
<path d="M151.366 289.83L150.037 273.209C149.942 272.023 150.859 270.983 152.08 270.891L161.705 270.166C162.927 270.074 163.998 270.964 164.092 272.15L165.421 288.771C165.516 289.956 164.599 290.996 163.378 291.088L153.753 291.813C152.531 291.905 151.461 291.015 151.366 289.83Z" fill="#3F3D56"/>
<path d="M173.612 332.494C173.165 332.896 172.946 333.464 173.011 334.051L174.782 350.079C174.889 351.048 175.758 351.774 176.76 351.733C177.287 351.714 177.761 351.491 178.107 351.111C178.454 350.732 178.623 350.244 178.583 349.739L177.308 333.8C177.242 332.964 176.602 332.274 175.753 332.121L175.256 332.032C175.088 332.002 174.92 331.993 174.755 332.006C174.333 332.037 173.933 332.206 173.612 332.494Z" fill="#3F3D56"/>
<path d="M146.671 328.718C146.202 328.342 145.918 327.81 145.871 327.222L144.597 311.283C144.519 310.31 145.127 309.405 146.075 309.081L146.552 308.918C147.22 308.691 147.941 308.78 148.529 309.164C149.117 309.548 149.474 310.163 149.508 310.85L150.306 326.951C150.362 328.083 149.497 329.071 148.337 329.198C148.31 329.201 148.283 329.203 148.256 329.205C147.68 329.249 147.12 329.077 146.671 328.718Z" fill="#3F3D56"/>
<path d="M208.479 333.896L216.281 345.213L218.132 358.462L223.619 358.387L220.484 342.761L208.028 328.447C207.193 330.216 207.364 332.279 208.479 333.896Z" fill="#CCCCCC"/>
<path d="M217.609 354.669L195.378 356.641L195.407 356.944L217.637 354.972L217.609 354.669Z" fill="#3F3D56"/>
<path d="M216.045 352.095L194.957 353.845L194.984 354.148L216.071 352.398L216.045 352.095Z" fill="#3F3D56"/>
<path d="M214.731 349.443L194.578 351.346L194.608 351.649L214.761 349.746L214.731 349.443Z" fill="#3F3D56"/>
<path d="M213.887 346.771L194.554 348.856L194.589 349.158L213.921 347.073L213.887 346.771Z" fill="#3F3D56"/>
<path d="M212.756 344.42L194.184 346.458L194.22 346.761L212.791 344.722L212.756 344.42Z" fill="#3F3D56"/>
<path d="M211.342 342.382L193.203 343.749L193.228 344.052L211.366 342.685L211.342 342.382Z" fill="#3F3D56"/>
<path d="M210.233 340.325L192.621 341.854L192.649 342.157L210.26 340.628L210.233 340.325Z" fill="#3F3D56"/>
<path d="M209.123 338.275L192.086 340.113L192.121 340.415L209.157 338.578L209.123 338.275Z" fill="#3F3D56"/>
<path d="M208.332 336.211L191.488 337.77L191.518 338.072L208.362 336.514L208.332 336.211Z" fill="#3F3D56"/>
<path d="M206.912 334.205L190.801 335.912L190.835 336.214L206.946 334.508L206.912 334.205Z" fill="#3F3D56"/>
<path d="M206.143 332.402L190.148 333.76L190.175 334.063L206.17 332.705L206.143 332.402Z" fill="#3F3D56"/>
<path d="M188.467 327.453L186.823 306.89C186.728 305.704 187.645 304.664 188.866 304.572L199.116 303.8C200.337 303.708 201.408 304.598 201.503 305.784L203.147 326.347C203.241 327.532 202.325 328.572 201.104 328.664L190.854 329.436C189.632 329.528 188.561 328.638 188.467 327.453Z" fill="#007BFF"/>
<path d="M166.992 359.298L148.759 359.543L148.612 359.544L147.522 345.913C147.384 344.189 148.717 342.677 150.493 342.543L168.415 341.193C170.19 341.059 171.747 342.353 171.885 344.077L173.065 358.84L172.909 358.852L166.992 359.298Z" fill="#CCCCCC"/>
<path d="M186.734 290.063L185.478 274.351C185.384 273.166 186.3 272.126 187.522 272.034L190.9 271.779C192.121 271.687 193.192 272.577 193.287 273.763L194.543 289.474C194.638 290.66 193.721 291.7 192.5 291.792L189.122 292.046C187.9 292.138 186.829 291.249 186.734 290.063Z" fill="#3F3D56"/>
<path d="M195.675 358.662L193.672 345.391L189.842 332.868L188.783 329.44C187.093 328.501 185.027 329.842 185.274 331.716L185.47 333.197L189.299 345.721L191.302 358.992" fill="#CCCCCC"/>
<path d="M322.992 357.122L37.3738 360.717L37.3819 361.325L323 357.731L322.992 357.122Z" fill="#CCCCCC"/>
<path d="M132.786 267.704C139.852 267.704 145.579 262.144 145.579 255.286C145.579 248.427 139.852 242.867 132.786 242.867C125.721 242.867 119.994 248.427 119.994 255.286C119.994 262.144 125.721 267.704 132.786 267.704Z" fill="#007BFF"/>
<path d="M141.088 242.203C140.341 241.779 139.202 241.999 138.791 242.787C137.171 245.899 135.99 249.157 135.221 252.529C133.992 251.059 132.764 249.589 131.535 248.119C130.964 247.435 129.755 247.542 129.161 248.119C128.465 248.795 128.588 249.738 129.161 250.424C131.117 252.764 133.072 255.104 135.028 257.444C135.441 257.938 136.308 258.017 136.861 257.781C137.53 257.496 137.802 256.969 137.893 256.292C138.448 252.176 139.764 248.133 141.691 244.432C142.099 243.647 141.904 242.666 141.088 242.203Z" fill="white"/>
<path d="M139.824 282.529C145.566 283.86 150.927 282.062 151.799 278.515C152.671 274.967 148.723 271.014 142.979 269.684C140.692 269.122 138.3 269.099 136.002 269.619L111.6 264.279L109.263 275.449L133.567 279.527C135.376 280.999 137.521 282.028 139.824 282.529Z" fill="#FFB6B6"/>
<path d="M113.446 220.922L109.417 217.663C109.417 217.663 101.36 221.574 100.017 224.833C98.6736 228.093 90.6157 259.382 90.6157 259.382C90.6157 259.382 89.0348 276.531 93.1827 278.712C97.3306 280.894 123.519 279.59 123.519 279.59L125.533 266.553L114.789 262.642L113.446 220.922Z" fill="#007BFF"/>
<path d="M274.135 403.507C273.568 402.579 271.116 403.572 270.665 402.73C270.216 401.891 272.494 400.612 273.796 397.691C274.031 397.165 275.511 393.845 274.415 392.821C272.339 390.879 262.839 398.891 259.515 396.269C258.785 395.694 258.275 394.545 256.067 392.68C255.188 391.938 254.657 391.603 254.143 391.728C253.414 391.905 253.356 392.853 252.574 394.716C251.401 397.511 250.707 397.342 250.023 399.572C249.516 401.227 249.632 402.19 249.035 402.377C248.19 402.642 247.412 400.887 246.341 401.044C245.249 401.204 244.588 403.249 244.38 404.779C243.988 407.651 245.074 409.547 245.677 411.539C246.331 413.705 246.72 416.999 245.208 421.661L230.249 462.577C233.552 454.181 243.114 431.166 247.132 422.614C248.292 420.145 249.573 417.64 252.202 416.652C254.734 415.701 258.211 416.269 262.644 415.232C263.162 415.111 264.599 414.756 264.779 413.936C264.929 413.258 264.084 412.879 264.214 412.244C264.388 411.392 266.05 411.381 268.092 410.398C269.532 409.705 270.429 408.881 271.2 408.172C271.433 407.958 274.89 404.742 274.135 403.507Z" fill="#F2F2F2"/>
<path d="M215.283 425.046C214.65 425.049 214.445 426.504 213.889 426.476C213.335 426.448 213.346 424.993 212.245 423.53C212.046 423.266 210.795 421.603 209.961 421.83C208.381 422.259 209.69 429.097 207.405 429.924C206.904 430.106 206.176 430.018 204.596 430.532C203.967 430.736 203.645 430.893 203.56 431.173C203.438 431.572 203.901 431.873 204.617 432.783C205.692 434.149 205.406 434.431 206.336 435.4C207.027 436.119 207.547 436.341 207.469 436.68C207.36 437.159 206.248 437.023 206.018 437.579C205.784 438.146 206.627 439.05 207.341 439.591C208.68 440.606 209.951 440.636 211.133 440.924C212.417 441.237 214.194 442.002 216.115 444.067L232.485 463C229.193 459.004 220.316 447.808 217.152 443.425C216.238 442.16 215.341 440.828 215.601 439.29C215.85 437.809 217.14 436.316 217.895 433.905C217.984 433.623 218.219 432.836 217.856 432.513C217.556 432.246 217.121 432.54 216.837 432.295C216.457 431.966 216.931 431.171 217.023 429.914C217.088 429.028 216.931 428.363 216.795 427.791C216.754 427.618 216.125 425.043 215.283 425.046Z" fill="#F2F2F2"/>
<path d="M227.907 427.797L227.525 424.493L227.7 424.243C228.506 423.085 228.916 421.954 228.921 420.88C228.922 420.709 228.914 420.539 228.906 420.365C228.873 419.676 228.832 418.819 229.292 417.82C229.55 417.264 230.275 415.975 231.364 416.134C231.657 416.174 231.879 416.305 232.048 416.458C232.072 416.42 232.098 416.382 232.125 416.34C232.464 415.838 232.733 415.622 232.992 415.415C233.191 415.255 233.396 415.091 233.718 414.702C233.859 414.531 233.969 414.381 234.062 414.255C234.344 413.874 234.712 413.419 235.361 413.427C236.055 413.459 236.418 414.016 236.659 414.384C237.088 415.042 237.283 415.515 237.412 415.83C237.459 415.944 237.512 416.074 237.539 416.114C237.763 416.433 239.58 416.134 240.264 416.026C241.801 415.777 243.132 415.562 243.68 416.503C244.072 417.176 243.781 418.066 242.786 419.219C242.477 419.578 242.147 419.851 241.855 420.065C242.097 420.205 242.314 420.421 242.402 420.759C242.609 421.56 241.9 422.362 240.295 423.147C239.897 423.343 239.36 423.605 238.608 423.731C238.254 423.79 237.935 423.804 237.663 423.812C237.657 423.965 237.62 424.131 237.524 424.302C237.242 424.805 236.655 425.044 235.771 424.986C234.799 424.937 233.997 424.757 233.291 424.599C232.674 424.462 232.142 424.345 231.725 424.372C230.951 424.433 230.354 425.034 229.654 425.814L227.907 427.797Z" fill="#F2F2F2"/>
<path d="M229.675 408.126L226.48 409.322L226.186 409.222C224.828 408.759 223.597 408.66 222.526 408.928C222.355 408.971 222.187 409.022 222.016 409.073C221.338 409.279 220.495 409.535 219.383 409.356C218.763 409.255 217.295 408.902 217.177 407.838C217.143 407.552 217.217 407.311 217.326 407.114C217.282 407.101 217.237 407.086 217.189 407.071C216.602 406.88 216.32 406.683 216.047 406.492C215.838 406.346 215.622 406.195 215.153 405.991C214.947 405.902 214.769 405.836 214.62 405.781C214.169 405.613 213.623 405.383 213.466 404.771C213.322 404.112 213.784 403.63 214.09 403.31C214.636 402.74 215.059 402.437 215.339 402.236C215.442 402.163 215.557 402.08 215.59 402.044C215.851 401.754 215.093 400.123 214.812 399.508C214.174 398.128 213.622 396.933 214.421 396.18C214.992 395.64 215.953 395.688 217.354 396.329C217.79 396.529 218.146 396.769 218.433 396.99C218.511 396.727 218.671 396.468 218.986 396.3C219.731 395.903 220.71 396.365 221.899 397.673C222.196 397.997 222.593 398.434 222.909 399.108C223.058 399.426 223.153 399.722 223.23 399.976C223.384 399.942 223.559 399.935 223.753 399.982C224.325 400.119 224.713 400.609 224.88 401.454C225.077 402.38 225.101 403.178 225.123 403.882C225.142 404.496 225.161 405.025 225.294 405.41C225.551 406.121 226.301 406.529 227.256 406.988L229.675 408.126Z" fill="#F2F2F2"/>
<path d="M227.907 398.393L227.525 395.09L227.7 394.839C228.506 393.681 228.916 392.55 228.921 391.476C228.922 391.306 228.914 391.135 228.906 390.961C228.873 390.272 228.832 389.415 229.292 388.417C229.55 387.86 230.275 386.571 231.364 386.73C231.657 386.77 231.879 386.901 232.048 387.054C232.072 387.016 232.098 386.978 232.125 386.936C232.464 386.434 232.733 386.218 232.992 386.011C233.191 385.851 233.396 385.687 233.718 385.298C233.859 385.127 233.969 384.977 234.062 384.851C234.344 384.47 234.712 384.015 235.361 384.023C236.055 384.055 236.418 384.612 236.659 384.98C237.088 385.638 237.283 386.111 237.412 386.426C237.459 386.541 237.512 386.67 237.539 386.71C237.763 387.029 239.58 386.73 240.264 386.622C241.801 386.373 243.132 386.158 243.68 387.099C244.072 387.772 243.781 388.662 242.786 389.816C242.477 390.175 242.147 390.447 241.855 390.661C242.097 390.802 242.314 391.017 242.402 391.355C242.609 392.156 241.9 392.958 240.295 393.743C239.897 393.939 239.36 394.201 238.608 394.327C238.254 394.386 237.935 394.4 237.663 394.408C237.657 394.562 237.62 394.728 237.524 394.898C237.242 395.401 236.655 395.64 235.771 395.583C234.799 395.533 233.997 395.353 233.291 395.195C232.674 395.058 232.142 394.941 231.725 394.968C230.951 395.029 230.354 395.63 229.654 396.411L227.907 398.393Z" fill="#F2F2F2"/>
<path d="M231.389 462.523L230.676 462.089L229.844 462.181C229.831 462.106 229.786 461.934 229.718 461.664C229.345 460.187 228.211 455.692 227.264 448.612C226.604 443.67 226.23 438.589 226.152 433.508C226.075 428.419 226.323 424.567 226.522 421.47C226.673 419.135 226.855 416.911 227.034 414.745C227.511 408.957 227.96 403.49 227.626 397.438C227.552 396.087 227.396 393.274 225.704 390.281C224.722 388.546 223.37 387.005 221.684 385.703L222.732 384.424C224.593 385.863 226.089 387.569 227.18 389.497C229.056 392.815 229.225 395.879 229.307 397.352C229.647 403.511 229.193 409.03 228.711 414.874C228.534 417.032 228.351 419.246 228.202 421.572C228.004 424.64 227.759 428.459 227.835 433.483C227.911 438.503 228.28 443.522 228.932 448.401C229.867 455.392 230.985 459.82 231.353 461.275C231.548 462.052 231.589 462.215 231.389 462.523Z" fill="#F2F2F2"/>
<path d="M218.597 388.299C218.528 388.299 218.459 388.297 218.388 388.292C216.955 388.217 215.628 387.385 214.443 385.818C213.888 385.081 213.604 384.24 213.037 382.564C212.949 382.305 212.522 380.994 212.262 379.19C212.092 378.011 212.113 377.518 212.354 377.082C212.621 376.597 213.053 376.259 213.54 376.031C213.518 375.875 213.535 375.714 213.605 375.549C213.892 374.868 214.654 374.957 215.067 375.001C215.276 375.026 215.536 375.06 215.817 375.045C216.259 375.024 216.497 374.897 216.856 374.705C217.201 374.522 217.629 374.294 218.264 374.168C219.516 373.914 220.565 374.259 220.911 374.372C222.731 374.961 223.628 376.334 224.667 377.925C224.874 378.244 225.585 379.405 226.054 380.997C226.392 382.146 226.345 382.656 226.243 383.036C226.036 383.816 225.547 384.263 224.305 385.248C223.009 386.281 222.358 386.797 221.799 387.112C220.499 387.841 219.682 388.299 218.597 388.299Z" fill="#F2F2F2"/>
<path d="M290.423 461.78C290.423 462.082 290.17 462.328 289.859 462.328H3.56407C3.25255 462.328 3 462.082 3 461.78C3 461.478 3.25254 461.232 3.56407 461.232H289.859C290.17 461.232 290.423 461.478 290.423 461.78Z" fill="#E6E6E6"/>
</g>
<path d="M24.5 10.625L19.35 28H16.125L12.475 14.85L8.6 28L5.4 28.025L0.475 10.625H3.5L7.1 24.775L11 10.625H14.2L17.825 24.7L21.45 10.625H24.5ZM39.4756 20.775C39.4756 21.2917 39.4423 21.7583 39.3756 22.175H28.8506C28.9339 23.275 29.3423 24.1583 30.0756 24.825C30.8089 25.4917 31.7089 25.825 32.7756 25.825C34.3089 25.825 35.3923 25.1833 36.0256 23.9H39.1006C38.6839 25.1667 37.9256 26.2083 36.8256 27.025C35.7423 27.825 34.3923 28.225 32.7756 28.225C31.4589 28.225 30.2756 27.9333 29.2256 27.35C28.1923 26.75 27.3756 25.9167 26.7756 24.85C26.1923 23.7667 25.9006 22.5167 25.9006 21.1C25.9006 19.6833 26.1839 18.4417 26.7506 17.375C27.3339 16.2917 28.1423 15.4583 29.1756 14.875C30.2256 14.2917 31.4256 14 32.7756 14C34.0756 14 35.2339 14.2833 36.2506 14.85C37.2673 15.4167 38.0589 16.2167 38.6256 17.25C39.1923 18.2667 39.4756 19.4417 39.4756 20.775ZM36.5006 19.875C36.4839 18.825 36.1089 17.9833 35.3756 17.35C34.6423 16.7167 33.7339 16.4 32.6506 16.4C31.6673 16.4 30.8256 16.7167 30.1256 17.35C29.4256 17.9667 29.0089 18.8083 28.8756 19.875H36.5006ZM45.1303 9.5V28H42.2803V9.5H45.1303ZM47.9221 21.1C47.9221 19.6833 48.2054 18.4417 48.7721 17.375C49.3554 16.2917 50.1554 15.4583 51.1721 14.875C52.1887 14.2917 53.3554 14 54.6721 14C56.3387 14 57.7137 14.4 58.7971 15.2C59.8971 15.9833 60.6387 17.1083 61.0221 18.575H57.9471C57.6971 17.8917 57.2971 17.3583 56.7471 16.975C56.1971 16.5917 55.5054 16.4 54.6721 16.4C53.5054 16.4 52.5721 16.8167 51.8721 17.65C51.1887 18.4667 50.8471 19.6167 50.8471 21.1C50.8471 22.5833 51.1887 23.7417 51.8721 24.575C52.5721 25.4083 53.5054 25.825 54.6721 25.825C56.3221 25.825 57.4137 25.1 57.9471 23.65H61.0221C60.6221 25.05 59.8721 26.1667 58.7721 27C57.6721 27.8167 56.3054 28.225 54.6721 28.225C53.3554 28.225 52.1887 27.9333 51.1721 27.35C50.1554 26.75 49.3554 25.9167 48.7721 24.85C48.2054 23.7667 47.9221 22.5167 47.9221 21.1ZM69.8373 28.225C68.5373 28.225 67.3623 27.9333 66.3123 27.35C65.2623 26.75 64.4373 25.9167 63.8373 24.85C63.2373 23.7667 62.9373 22.5167 62.9373 21.1C62.9373 19.7 63.2456 18.4583 63.8623 17.375C64.479 16.2917 65.3206 15.4583 66.3873 14.875C67.454 14.2917 68.6456 14 69.9623 14C71.279 14 72.4706 14.2917 73.5373 14.875C74.604 15.4583 75.4456 16.2917 76.0623 17.375C76.679 18.4583 76.9873 19.7 76.9873 21.1C76.9873 22.5 76.6706 23.7417 76.0373 24.825C75.404 25.9083 74.5373 26.75 73.4373 27.35C72.354 27.9333 71.154 28.225 69.8373 28.225ZM69.8373 25.75C70.5706 25.75 71.254 25.575 71.8873 25.225C72.5373 24.875 73.0623 24.35 73.4623 23.65C73.8623 22.95 74.0623 22.1 74.0623 21.1C74.0623 20.1 73.8706 19.2583 73.4873 18.575C73.104 17.875 72.5956 17.35 71.9623 17C71.329 16.65 70.6456 16.475 69.9123 16.475C69.179 16.475 68.4956 16.65 67.8623 17C67.2456 17.35 66.754 17.875 66.3873 18.575C66.0206 19.2583 65.8373 20.1 65.8373 21.1C65.8373 22.5833 66.2123 23.7333 66.9623 24.55C67.729 25.35 68.6873 25.75 69.8373 25.75ZM96.4797 14C97.563 14 98.5297 14.225 99.3797 14.675C100.246 15.125 100.921 15.7917 101.405 16.675C101.905 17.5583 102.155 18.625 102.155 19.875V28H99.3297V20.3C99.3297 19.0667 99.0214 18.125 98.4047 17.475C97.788 16.8083 96.9464 16.475 95.8797 16.475C94.813 16.475 93.963 16.8083 93.3297 17.475C92.713 18.125 92.4047 19.0667 92.4047 20.3V28H89.5797V20.3C89.5797 19.0667 89.2714 18.125 88.6547 17.475C88.038 16.8083 87.1964 16.475 86.1297 16.475C85.063 16.475 84.213 16.8083 83.5797 17.475C82.963 18.125 82.6547 19.0667 82.6547 20.3V28H79.8047V14.225H82.6547V15.8C83.1214 15.2333 83.713 14.7917 84.4297 14.475C85.1464 14.1583 85.913 14 86.7297 14C87.8297 14 88.813 14.2333 89.6797 14.7C90.5464 15.1667 91.213 15.8417 91.6797 16.725C92.0964 15.8917 92.7464 15.2333 93.6297 14.75C94.513 14.25 95.463 14 96.4797 14ZM118.406 20.775C118.406 21.2917 118.373 21.7583 118.306 22.175H107.781C107.865 23.275 108.273 24.1583 109.006 24.825C109.74 25.4917 110.64 25.825 111.706 25.825C113.24 25.825 114.323 25.1833 114.956 23.9H118.031C117.615 25.1667 116.856 26.2083 115.756 27.025C114.673 27.825 113.323 28.225 111.706 28.225C110.39 28.225 109.206 27.9333 108.156 27.35C107.123 26.75 106.306 25.9167 105.706 24.85C105.123 23.7667 104.831 22.5167 104.831 21.1C104.831 19.6833 105.115 18.4417 105.681 17.375C106.265 16.2917 107.073 15.4583 108.106 14.875C109.156 14.2917 110.356 14 111.706 14C113.006 14 114.165 14.2833 115.181 14.85C116.198 15.4167 116.99 16.2167 117.556 17.25C118.123 18.2667 118.406 19.4417 118.406 20.775ZM115.431 19.875C115.415 18.825 115.04 17.9833 114.306 17.35C113.573 16.7167 112.665 16.4 111.581 16.4C110.598 16.4 109.756 16.7167 109.056 17.35C108.356 17.9667 107.94 18.8083 107.806 19.875H115.431ZM131.03 16.55V24.175C131.03 24.6917 131.147 25.0667 131.38 25.3C131.63 25.5167 132.047 25.625 132.63 25.625H134.38V28H132.13C130.847 28 129.863 27.7 129.18 27.1C128.497 26.5 128.155 25.525 128.155 24.175V16.55H126.53V14.225H128.155V10.8H131.03V14.225H134.38V16.55H131.03ZM142.982 28.225C141.682 28.225 140.507 27.9333 139.457 27.35C138.407 26.75 137.582 25.9167 136.982 24.85C136.382 23.7667 136.082 22.5167 136.082 21.1C136.082 19.7 136.39 18.4583 137.007 17.375C137.624 16.2917 138.465 15.4583 139.532 14.875C140.599 14.2917 141.79 14 143.107 14C144.424 14 145.615 14.2917 146.682 14.875C147.749 15.4583 148.59 16.2917 149.207 17.375C149.824 18.4583 150.132 19.7 150.132 21.1C150.132 22.5 149.815 23.7417 149.182 24.825C148.549 25.9083 147.682 26.75 146.582 27.35C145.499 27.9333 144.299 28.225 142.982 28.225ZM142.982 25.75C143.715 25.75 144.399 25.575 145.032 25.225C145.682 24.875 146.207 24.35 146.607 23.65C147.007 22.95 147.207 22.1 147.207 21.1C147.207 20.1 147.015 19.2583 146.632 18.575C146.249 17.875 145.74 17.35 145.107 17C144.474 16.65 143.79 16.475 143.057 16.475C142.324 16.475 141.64 16.65 141.007 17C140.39 17.35 139.899 17.875 139.532 18.575C139.165 19.2583 138.982 20.1 138.982 21.1C138.982 22.5833 139.357 23.7333 140.107 24.55C140.874 25.35 141.832 25.75 142.982 25.75Z" fill="black"/>
<path d="M19.48 53.6C21.1067 53.9467 22.4133 54.76 23.4 56.04C24.3867 57.2933 24.88 58.7333 24.88 60.36C24.88 62.7067 24.0533 64.5733 22.4 65.96C20.7733 67.32 18.4933 68 15.56 68H2.48V39.92H15.12C17.9733 39.92 20.2 40.5733 21.8 41.88C23.4267 43.1867 24.24 44.96 24.24 47.2C24.24 48.8533 23.8 50.2267 22.92 51.32C22.0667 52.4133 20.92 53.1733 19.48 53.6ZM9.32 51.28H13.8C14.92 51.28 15.7733 51.04 16.36 50.56C16.9733 50.0533 17.28 49.32 17.28 48.36C17.28 47.4 16.9733 46.6667 16.36 46.16C15.7733 45.6533 14.92 45.4 13.8 45.4H9.32V51.28ZM14.36 62.48C15.5067 62.48 16.3867 62.2267 17 61.72C17.64 61.1867 17.96 60.4267 17.96 59.44C17.96 58.4533 17.6267 57.68 16.96 57.12C16.32 56.56 15.4267 56.28 14.28 56.28H9.32V62.48H14.36ZM39.0072 68.32C36.8205 68.32 34.8472 67.8533 33.0872 66.92C31.3539 65.9867 29.9805 64.6533 28.9672 62.92C27.9805 61.1867 27.4872 59.16 27.4872 56.84C27.4872 54.5467 27.9939 52.5333 29.0072 50.8C30.0205 49.04 31.4072 47.6933 33.1672 46.76C34.9272 45.8267 36.9005 45.36 39.0872 45.36C41.2739 45.36 43.2472 45.8267 45.0072 46.76C46.7672 47.6933 48.1539 49.04 49.1672 50.8C50.1805 52.5333 50.6872 54.5467 50.6872 56.84C50.6872 59.1333 50.1672 61.16 49.1272 62.92C48.1139 64.6533 46.7139 65.9867 44.9272 66.92C43.1672 67.8533 41.1939 68.32 39.0072 68.32ZM39.0072 62.4C40.3139 62.4 41.4205 61.92 42.3272 60.96C43.2605 60 43.7272 58.6267 43.7272 56.84C43.7272 55.0533 43.2739 53.68 42.3672 52.72C41.4872 51.76 40.3939 51.28 39.0872 51.28C37.7539 51.28 36.6472 51.76 35.7672 52.72C34.8872 53.6533 34.4472 55.0267 34.4472 56.84C34.4472 58.6267 34.8739 60 35.7272 60.96C36.6072 61.92 37.7005 62.4 39.0072 62.4ZM52.9559 56.8C52.9559 54.5067 53.3826 52.4933 54.2359 50.76C55.1159 49.0267 56.3026 47.6933 57.7959 46.76C59.2893 45.8267 60.9559 45.36 62.7959 45.36C64.3693 45.36 65.7426 45.68 66.9159 46.32C68.1159 46.96 69.0359 47.8 69.6759 48.84V45.68H76.5159V68H69.6759V64.84C69.0093 65.88 68.0759 66.72 66.8759 67.36C65.7026 68 64.3293 68.32 62.7559 68.32C60.9426 68.32 59.2893 67.8533 57.7959 66.92C56.3026 65.96 55.1159 64.6133 54.2359 62.88C53.3826 61.12 52.9559 59.0933 52.9559 56.8ZM69.6759 56.84C69.6759 55.1333 69.1959 53.7867 68.2359 52.8C67.3026 51.8133 66.1559 51.32 64.7959 51.32C63.4359 51.32 62.2759 51.8133 61.3159 52.8C60.3826 53.76 59.9159 55.0933 59.9159 56.8C59.9159 58.5067 60.3826 59.8667 61.3159 60.88C62.2759 61.8667 63.4359 62.36 64.7959 62.36C66.1559 62.36 67.3026 61.8667 68.2359 60.88C69.1959 59.8933 69.6759 58.5467 69.6759 56.84ZM88.3044 49.4C89.1044 48.1733 90.1044 47.2133 91.3044 46.52C92.5044 45.8 93.8377 45.44 95.3044 45.44V52.68H93.4244C91.7177 52.68 90.4377 53.0533 89.5844 53.8C88.731 54.52 88.3044 55.8 88.3044 57.64V68H81.4644V45.68H88.3044V49.4ZM97.2138 56.8C97.2138 54.5067 97.6404 52.4933 98.4938 50.76C99.3738 49.0267 100.56 47.6933 102.054 46.76C103.547 45.8267 105.214 45.36 107.054 45.36C108.52 45.36 109.854 45.6667 111.054 46.28C112.28 46.8933 113.24 47.72 113.934 48.76V38.4H120.774V68H113.934V64.8C113.294 65.8667 112.374 66.72 111.174 67.36C110 68 108.627 68.32 107.054 68.32C105.214 68.32 103.547 67.8533 102.054 66.92C100.56 65.96 99.3738 64.6133 98.4938 62.88C97.6404 61.12 97.2138 59.0933 97.2138 56.8ZM113.934 56.84C113.934 55.1333 113.454 53.7867 112.494 52.8C111.56 51.8133 110.414 51.32 109.054 51.32C107.694 51.32 106.534 51.8133 105.574 52.8C104.64 53.76 104.174 55.0933 104.174 56.8C104.174 58.5067 104.64 59.8667 105.574 60.88C106.534 61.8667 107.694 62.36 109.054 62.36C110.414 62.36 111.56 61.8667 112.494 60.88C113.454 59.8933 113.934 58.5467 113.934 56.84ZM129.162 43.36C127.962 43.36 126.976 43.0133 126.202 42.32C125.456 41.6 125.082 40.72 125.082 39.68C125.082 38.6133 125.456 37.7333 126.202 37.04C126.976 36.32 127.962 35.96 129.162 35.96C130.336 35.96 131.296 36.32 132.042 37.04C132.816 37.7333 133.202 38.6133 133.202 39.68C133.202 40.72 132.816 41.6 132.042 42.32C131.296 43.0133 130.336 43.36 129.162 43.36ZM132.562 45.68V68H125.722V45.68H132.562ZM151.119 45.44C153.732 45.44 155.812 46.2933 157.359 48C158.932 49.68 159.719 52 159.719 54.96V68H152.919V55.88C152.919 54.3867 152.532 53.2267 151.759 52.4C150.986 51.5733 149.946 51.16 148.639 51.16C147.332 51.16 146.292 51.5733 145.519 52.4C144.746 53.2267 144.359 54.3867 144.359 55.88V68H137.519V45.68H144.359V48.64C145.052 47.6533 145.986 46.88 147.159 46.32C148.332 45.7333 149.652 45.44 151.119 45.44ZM172.952 45.36C174.526 45.36 175.899 45.68 177.072 46.32C178.272 46.96 179.192 47.8 179.832 48.84V45.68H186.672V67.96C186.672 70.0133 186.259 71.8667 185.432 73.52C184.632 75.2 183.392 76.5333 181.712 77.52C180.059 78.5067 177.992 79 175.512 79C172.206 79 169.526 78.2133 167.472 76.64C165.419 75.0933 164.246 72.9867 163.952 70.32H170.712C170.926 71.1733 171.432 71.84 172.232 72.32C173.032 72.8267 174.019 73.08 175.192 73.08C176.606 73.08 177.726 72.6667 178.552 71.84C179.406 71.04 179.832 69.7467 179.832 67.96V64.8C179.166 65.84 178.246 66.6933 177.072 67.36C175.899 68 174.526 68.32 172.952 68.32C171.112 68.32 169.446 67.8533 167.952 66.92C166.459 65.96 165.272 64.6133 164.392 62.88C163.539 61.12 163.112 59.0933 163.112 56.8C163.112 54.5067 163.539 52.4933 164.392 50.76C165.272 49.0267 166.459 47.6933 167.952 46.76C169.446 45.8267 171.112 45.36 172.952 45.36ZM179.832 56.84C179.832 55.1333 179.352 53.7867 178.392 52.8C177.459 51.8133 176.312 51.32 174.952 51.32C173.592 51.32 172.432 51.8133 171.472 52.8C170.539 53.76 170.072 55.0933 170.072 56.8C170.072 58.5067 170.539 59.8667 171.472 60.88C172.432 61.8667 173.592 62.36 174.952 62.36C176.312 62.36 177.459 61.8667 178.392 60.88C179.352 59.8933 179.832 58.5467 179.832 56.84ZM224.417 39.92V68H217.577V56.44H206.937V68H200.097V39.92H206.937V50.92H217.577V39.92H224.417ZM239.515 68.32C237.328 68.32 235.355 67.8533 233.595 66.92C231.862 65.9867 230.488 64.6533 229.475 62.92C228.488 61.1867 227.995 59.16 227.995 56.84C227.995 54.5467 228.502 52.5333 229.515 50.8C230.528 49.04 231.915 47.6933 233.675 46.76C235.435 45.8267 237.408 45.36 239.595 45.36C241.782 45.36 243.755 45.8267 245.515 46.76C247.275 47.6933 248.662 49.04 249.675 50.8C250.688 52.5333 251.195 54.5467 251.195 56.84C251.195 59.1333 250.675 61.16 249.635 62.92C248.622 64.6533 247.222 65.9867 245.435 66.92C243.675 67.8533 241.702 68.32 239.515 68.32ZM239.515 62.4C240.822 62.4 241.928 61.92 242.835 60.96C243.768 60 244.235 58.6267 244.235 56.84C244.235 55.0533 243.782 53.68 242.875 52.72C241.995 51.76 240.902 51.28 239.595 51.28C238.262 51.28 237.155 51.76 236.275 52.72C235.395 53.6533 234.955 55.0267 234.955 56.84C234.955 58.6267 235.382 60 236.235 60.96C237.115 61.92 238.208 62.4 239.515 62.4ZM276.864 45.68V68H270.024V64.96C269.33 65.9467 268.384 66.7467 267.184 67.36C266.01 67.9467 264.704 68.24 263.264 68.24C261.557 68.24 260.05 67.8667 258.744 67.12C257.437 66.3467 256.424 65.24 255.704 63.8C254.984 62.36 254.624 60.6667 254.624 58.72V45.68H261.424V57.8C261.424 59.2933 261.81 60.4533 262.584 61.28C263.357 62.1067 264.397 62.52 265.704 62.52C267.037 62.52 268.09 62.1067 268.864 61.28C269.637 60.4533 270.024 59.2933 270.024 57.8V45.68H276.864ZM290.857 68.32C288.91 68.32 287.177 67.9867 285.657 67.32C284.137 66.6533 282.937 65.7467 282.057 64.6C281.177 63.4267 280.684 62.12 280.577 60.68H287.337C287.417 61.4533 287.777 62.08 288.417 62.56C289.057 63.04 289.844 63.28 290.777 63.28C291.63 63.28 292.284 63.12 292.737 62.8C293.217 62.4533 293.457 62.0133 293.457 61.48C293.457 60.84 293.124 60.3733 292.457 60.08C291.79 59.76 290.71 59.4133 289.217 59.04C287.617 58.6667 286.284 58.28 285.217 57.88C284.15 57.4533 283.23 56.8 282.457 55.92C281.684 55.0133 281.297 53.8 281.297 52.28C281.297 51 281.644 49.84 282.337 48.8C283.057 47.7333 284.097 46.8933 285.457 46.28C286.844 45.6667 288.484 45.36 290.377 45.36C293.177 45.36 295.377 46.0533 296.977 47.44C298.604 48.8267 299.537 50.6667 299.777 52.96H293.457C293.35 52.1867 293.004 51.5733 292.417 51.12C291.857 50.6667 291.11 50.44 290.177 50.44C289.377 50.44 288.764 50.6 288.337 50.92C287.91 51.2133 287.697 51.6267 287.697 52.16C287.697 52.8 288.03 53.28 288.697 53.6C289.39 53.92 290.457 54.24 291.897 54.56C293.55 54.9867 294.897 55.4133 295.937 55.84C296.977 56.24 297.884 56.9067 298.657 57.84C299.457 58.7467 299.87 59.9733 299.897 61.52C299.897 62.8267 299.524 64 298.777 65.04C298.057 66.0533 297.004 66.8533 295.617 67.44C294.257 68.0267 292.67 68.32 290.857 68.32ZM325.122 56.48C325.122 57.12 325.082 57.7867 325.002 58.48H309.522C309.628 59.8667 310.068 60.9333 310.842 61.68C311.642 62.4 312.615 62.76 313.762 62.76C315.468 62.76 316.655 62.04 317.322 60.6H324.602C324.228 62.0667 323.548 63.3867 322.562 64.56C321.602 65.7333 320.388 66.6533 318.922 67.32C317.455 67.9867 315.815 68.32 314.002 68.32C311.815 68.32 309.868 67.8533 308.162 66.92C306.455 65.9867 305.122 64.6533 304.162 62.92C303.202 61.1867 302.722 59.16 302.722 56.84C302.722 54.52 303.188 52.4933 304.122 50.76C305.082 49.0267 306.415 47.6933 308.122 46.76C309.828 45.8267 311.788 45.36 314.002 45.36C316.162 45.36 318.082 45.8133 319.762 46.72C321.442 47.6267 322.748 48.92 323.682 50.6C324.642 52.28 325.122 54.24 325.122 56.48ZM318.122 54.68C318.122 53.5067 317.722 52.5733 316.922 51.88C316.122 51.1867 315.122 50.84 313.922 50.84C312.775 50.84 311.802 51.1733 311.002 51.84C310.228 52.5067 309.748 53.4533 309.562 54.68H318.122ZM20.76 79.92V85.4H9.32V91.32H17.88V96.64H9.32V108H2.48V79.92H20.76ZM27.795 83.36C26.595 83.36 25.6083 83.0133 24.835 82.32C24.0883 81.6 23.715 80.72 23.715 79.68C23.715 78.6133 24.0883 77.7333 24.835 77.04C25.6083 76.32 26.595 75.96 27.795 75.96C28.9683 75.96 29.9283 76.32 30.675 77.04C31.4483 77.7333 31.835 78.6133 31.835 79.68C31.835 80.72 31.4483 81.6 30.675 82.32C29.9283 83.0133 28.9683 83.36 27.795 83.36ZM31.195 85.68V108H24.355V85.68H31.195ZM49.7519 85.44C52.3652 85.44 54.4452 86.2933 55.9919 88C57.5652 89.68 58.3519 92 58.3519 94.96V108H51.5519V95.88C51.5519 94.3867 51.1652 93.2267 50.3919 92.4C49.6185 91.5733 48.5785 91.16 47.2719 91.16C45.9652 91.16 44.9252 91.5733 44.1519 92.4C43.3785 93.2267 42.9919 94.3867 42.9919 95.88V108H36.1519V85.68H42.9919V88.64C43.6852 87.6533 44.6185 86.88 45.7919 86.32C46.9652 85.7333 48.2852 85.44 49.7519 85.44ZM61.745 96.8C61.745 94.5067 62.1717 92.4933 63.025 90.76C63.905 89.0267 65.0917 87.6933 66.585 86.76C68.0783 85.8267 69.745 85.36 71.585 85.36C73.0517 85.36 74.385 85.6667 75.585 86.28C76.8117 86.8933 77.7717 87.72 78.465 88.76V78.4H85.305V108H78.465V104.8C77.825 105.867 76.905 106.72 75.705 107.36C74.5317 108 73.1583 108.32 71.585 108.32C69.745 108.32 68.0783 107.853 66.585 106.92C65.0917 105.96 63.905 104.613 63.025 102.88C62.1717 101.12 61.745 99.0933 61.745 96.8ZM78.465 96.84C78.465 95.1333 77.985 93.7867 77.025 92.8C76.0917 91.8133 74.945 91.32 73.585 91.32C72.225 91.32 71.065 91.8133 70.105 92.8C69.1717 93.76 68.705 95.0933 68.705 96.8C68.705 98.5067 69.1717 99.8667 70.105 100.88C71.065 101.867 72.225 102.36 73.585 102.36C74.945 102.36 76.0917 101.867 77.025 100.88C77.985 99.8933 78.465 98.5467 78.465 96.84ZM111.293 96.48C111.293 97.12 111.253 97.7867 111.173 98.48H95.6934C95.8001 99.8667 96.2401 100.933 97.0134 101.68C97.8134 102.4 98.7868 102.76 99.9334 102.76C101.64 102.76 102.827 102.04 103.493 100.6H110.773C110.4 102.067 109.72 103.387 108.733 104.56C107.773 105.733 106.56 106.653 105.093 107.32C103.627 107.987 101.987 108.32 100.173 108.32C97.9868 108.32 96.0401 107.853 94.3334 106.92C92.6268 105.987 91.2934 104.653 90.3334 102.92C89.3734 101.187 88.8934 99.16 88.8934 96.84C88.8934 94.52 89.3601 92.4933 90.2934 90.76C91.2534 89.0267 92.5868 87.6933 94.2934 86.76C96.0001 85.8267 97.9601 85.36 100.173 85.36C102.333 85.36 104.253 85.8133 105.933 86.72C107.613 87.6267 108.92 88.92 109.853 90.6C110.813 92.28 111.293 94.24 111.293 96.48ZM104.293 94.68C104.293 93.5067 103.893 92.5733 103.093 91.88C102.293 91.1867 101.293 90.84 100.093 90.84C98.9468 90.84 97.9734 91.1733 97.1734 91.84C96.4001 92.5067 95.9201 93.4533 95.7334 94.68H104.293ZM121.742 89.4C122.542 88.1733 123.542 87.2133 124.742 86.52C125.942 85.8 127.275 85.44 128.742 85.44V92.68H126.862C125.155 92.68 123.875 93.0533 123.022 93.8C122.169 94.52 121.742 95.8 121.742 97.64V108H114.902V85.68H121.742V89.4ZM135.211 108.32C134.011 108.32 133.025 107.973 132.251 107.28C131.505 106.56 131.131 105.68 131.131 104.64C131.131 103.573 131.505 102.68 132.251 101.96C133.025 101.24 134.011 100.88 135.211 100.88C136.385 100.88 137.345 101.24 138.091 101.96C138.865 102.68 139.251 103.573 139.251 104.64C139.251 105.68 138.865 106.56 138.091 107.28C137.345 107.973 136.385 108.32 135.211 108.32Z" fill="#007BFF"/>
<path d="M65.6266 503.606C67.2986 503.606 68.7432 503.922 69.9606 504.552C71.1926 505.168 72.1312 506.056 72.7766 507.214C73.4366 508.373 73.7666 509.737 73.7666 511.306C73.7666 512.876 73.4366 514.24 72.7766 515.398C72.1312 516.542 71.1926 517.422 69.9606 518.038C68.7432 518.64 67.2986 518.94 65.6266 518.94H60.8526V503.606H65.6266ZM65.6266 517.29C67.6066 517.29 69.1172 516.77 70.1586 515.728C71.1999 514.672 71.7206 513.198 71.7206 511.306C71.7206 509.4 71.1926 507.911 70.1366 506.84C69.0952 505.77 67.5919 505.234 65.6266 505.234H62.8546V517.29H65.6266ZM77.4413 504.926C77.0599 504.926 76.7373 504.794 76.4733 504.53C76.2093 504.266 76.0773 503.944 76.0773 503.562C76.0773 503.181 76.2093 502.858 76.4733 502.594C76.7373 502.33 77.0599 502.198 77.4413 502.198C77.8079 502.198 78.1159 502.33 78.3653 502.594C78.6293 502.858 78.7613 503.181 78.7613 503.562C78.7613 503.944 78.6293 504.266 78.3653 504.53C78.1159 504.794 77.8079 504.926 77.4413 504.926ZM78.4093 506.884V518.94H76.4073V506.884H78.4093ZM86.0893 519.138C85.1653 519.138 84.3367 518.984 83.6033 518.676C82.87 518.354 82.2907 517.914 81.8653 517.356C81.44 516.784 81.2053 516.132 81.1613 515.398H83.2293C83.288 516 83.5667 516.491 84.0653 516.872C84.5787 517.254 85.246 517.444 86.0673 517.444C86.83 517.444 87.4313 517.276 87.8713 516.938C88.3113 516.601 88.5313 516.176 88.5313 515.662C88.5313 515.134 88.2967 514.746 87.8273 514.496C87.358 514.232 86.632 513.976 85.6493 513.726C84.7547 513.492 84.0213 513.257 83.4493 513.022C82.892 512.773 82.408 512.414 81.9973 511.944C81.6013 511.46 81.4033 510.83 81.4033 510.052C81.4033 509.436 81.5867 508.872 81.9533 508.358C82.32 507.845 82.8407 507.442 83.5153 507.148C84.19 506.84 84.96 506.686 85.8253 506.686C87.16 506.686 88.238 507.024 89.0593 507.698C89.8807 508.373 90.3207 509.297 90.3793 510.47H88.3773C88.3333 509.84 88.0767 509.334 87.6073 508.952C87.1527 508.571 86.5367 508.38 85.7593 508.38C85.0407 508.38 84.4687 508.534 84.0433 508.842C83.618 509.15 83.4053 509.554 83.4053 510.052C83.4053 510.448 83.53 510.778 83.7793 511.042C84.0433 511.292 84.366 511.497 84.7473 511.658C85.1433 511.805 85.686 511.974 86.3753 512.164C87.2407 512.399 87.9447 512.634 88.4873 512.868C89.03 513.088 89.492 513.426 89.8733 513.88C90.2693 514.335 90.4747 514.929 90.4893 515.662C90.4893 516.322 90.306 516.916 89.9393 517.444C89.5727 517.972 89.052 518.39 88.3773 518.698C87.7173 518.992 86.9547 519.138 86.0893 519.138ZM92.5675 512.89C92.5675 511.644 92.8168 510.558 93.3155 509.634C93.8141 508.696 94.5035 507.97 95.3835 507.456C96.2781 506.943 97.2975 506.686 98.4415 506.686C99.9228 506.686 101.14 507.046 102.093 507.764C103.061 508.483 103.699 509.48 104.007 510.756H101.851C101.646 510.023 101.243 509.444 100.641 509.018C100.055 508.593 99.3215 508.38 98.4415 508.38C97.2975 508.38 96.3735 508.776 95.6695 509.568C94.9655 510.346 94.6135 511.453 94.6135 512.89C94.6135 514.342 94.9655 515.464 95.6695 516.256C96.3735 517.048 97.2975 517.444 98.4415 517.444C99.3215 517.444 100.055 517.239 100.641 516.828C101.228 516.418 101.631 515.831 101.851 515.068H104.007C103.685 516.3 103.039 517.29 102.071 518.038C101.103 518.772 99.8935 519.138 98.4415 519.138C97.2975 519.138 96.2781 518.882 95.3835 518.368C94.5035 517.855 93.8141 517.129 93.3155 516.19C92.8168 515.252 92.5675 514.152 92.5675 512.89ZM111.937 519.138C110.807 519.138 109.781 518.882 108.857 518.368C107.947 517.855 107.229 517.129 106.701 516.19C106.187 515.237 105.931 514.137 105.931 512.89C105.931 511.658 106.195 510.573 106.723 509.634C107.265 508.681 107.999 507.955 108.923 507.456C109.847 506.943 110.881 506.686 112.025 506.686C113.169 506.686 114.203 506.943 115.127 507.456C116.051 507.955 116.777 508.674 117.305 509.612C117.847 510.551 118.119 511.644 118.119 512.89C118.119 514.137 117.84 515.237 117.283 516.19C116.74 517.129 115.999 517.855 115.061 518.368C114.122 518.882 113.081 519.138 111.937 519.138ZM111.937 517.378C112.655 517.378 113.33 517.21 113.961 516.872C114.591 516.535 115.097 516.029 115.479 515.354C115.875 514.68 116.073 513.858 116.073 512.89C116.073 511.922 115.882 511.101 115.501 510.426C115.119 509.752 114.621 509.253 114.005 508.93C113.389 508.593 112.721 508.424 112.003 508.424C111.269 508.424 110.595 508.593 109.979 508.93C109.377 509.253 108.893 509.752 108.527 510.426C108.16 511.101 107.977 511.922 107.977 512.89C107.977 513.873 108.153 514.702 108.505 515.376C108.871 516.051 109.355 516.557 109.957 516.894C110.558 517.217 111.218 517.378 111.937 517.378ZM125.239 517.092L128.979 506.884H131.113L126.383 518.94H124.051L119.321 506.884H121.477L125.239 517.092ZM144.083 512.45C144.083 512.832 144.061 513.235 144.017 513.66H134.381C134.454 514.848 134.858 515.78 135.591 516.454C136.339 517.114 137.241 517.444 138.297 517.444C139.162 517.444 139.881 517.246 140.453 516.85C141.04 516.44 141.45 515.897 141.685 515.222H143.841C143.518 516.381 142.873 517.327 141.905 518.06C140.937 518.779 139.734 519.138 138.297 519.138C137.153 519.138 136.126 518.882 135.217 518.368C134.322 517.855 133.618 517.129 133.105 516.19C132.592 515.237 132.335 514.137 132.335 512.89C132.335 511.644 132.584 510.551 133.083 509.612C133.582 508.674 134.278 507.955 135.173 507.456C136.082 506.943 137.124 506.686 138.297 506.686C139.441 506.686 140.453 506.936 141.333 507.434C142.213 507.933 142.888 508.622 143.357 509.502C143.841 510.368 144.083 511.35 144.083 512.45ZM142.015 512.032C142.015 511.27 141.846 510.617 141.509 510.074C141.172 509.517 140.71 509.099 140.123 508.82C139.551 508.527 138.913 508.38 138.209 508.38C137.197 508.38 136.332 508.703 135.613 509.348C134.909 509.994 134.506 510.888 134.403 512.032H142.015ZM148.728 508.842C149.08 508.153 149.578 507.618 150.224 507.236C150.884 506.855 151.683 506.664 152.622 506.664V508.732H152.094C149.85 508.732 148.728 509.95 148.728 512.384V518.94H146.726V506.884H148.728V508.842ZM171.182 506.884L163.922 524.616H161.854L164.23 518.808L159.368 506.884H161.59L165.374 516.652L169.114 506.884H171.182ZM178.452 519.138C177.323 519.138 176.296 518.882 175.372 518.368C174.463 517.855 173.744 517.129 173.216 516.19C172.703 515.237 172.446 514.137 172.446 512.89C172.446 511.658 172.71 510.573 173.238 509.634C173.781 508.681 174.514 507.955 175.438 507.456C176.362 506.943 177.396 506.686 178.54 506.686C179.684 506.686 180.718 506.943 181.642 507.456C182.566 507.955 183.292 508.674 183.82 509.612C184.363 510.551 184.634 511.644 184.634 512.89C184.634 514.137 184.356 515.237 183.798 516.19C183.256 517.129 182.515 517.855 181.576 518.368C180.638 518.882 179.596 519.138 178.452 519.138ZM178.452 517.378C179.171 517.378 179.846 517.21 180.476 516.872C181.107 516.535 181.613 516.029 181.994 515.354C182.39 514.68 182.588 513.858 182.588 512.89C182.588 511.922 182.398 511.101 182.016 510.426C181.635 509.752 181.136 509.253 180.52 508.93C179.904 508.593 179.237 508.424 178.518 508.424C177.785 508.424 177.11 508.593 176.494 508.93C175.893 509.253 175.409 509.752 175.042 510.426C174.676 511.101 174.492 511.922 174.492 512.89C174.492 513.873 174.668 514.702 175.02 515.376C175.387 516.051 175.871 516.557 176.472 516.894C177.074 517.217 177.734 517.378 178.452 517.378ZM197.959 506.884V518.94H195.957V517.158C195.575 517.774 195.04 518.258 194.351 518.61C193.676 518.948 192.928 519.116 192.107 519.116C191.168 519.116 190.325 518.926 189.577 518.544C188.829 518.148 188.235 517.562 187.795 516.784C187.369 516.007 187.157 515.061 187.157 513.946V506.884H189.137V513.682C189.137 514.87 189.437 515.787 190.039 516.432C190.64 517.063 191.461 517.378 192.503 517.378C193.573 517.378 194.417 517.048 195.033 516.388C195.649 515.728 195.957 514.768 195.957 513.506V506.884H197.959ZM203.341 508.842C203.693 508.153 204.192 507.618 204.837 507.236C205.497 506.855 206.296 506.664 207.235 506.664V508.732H206.707C204.463 508.732 203.341 509.95 203.341 512.384V518.94H201.339V506.884H203.341V508.842ZM216.445 504.926C216.064 504.926 215.741 504.794 215.477 504.53C215.213 504.266 215.081 503.944 215.081 503.562C215.081 503.181 215.213 502.858 215.477 502.594C215.741 502.33 216.064 502.198 216.445 502.198C216.812 502.198 217.12 502.33 217.369 502.594C217.633 502.858 217.765 503.181 217.765 503.562C217.765 503.944 217.633 504.266 217.369 504.53C217.12 504.794 216.812 504.926 216.445 504.926ZM217.413 506.884V518.94H215.411V506.884H217.413ZM220.077 512.868C220.077 511.636 220.327 510.558 220.825 509.634C221.324 508.696 222.006 507.97 222.871 507.456C223.751 506.943 224.734 506.686 225.819 506.686C226.758 506.686 227.631 506.906 228.437 507.346C229.244 507.772 229.86 508.336 230.285 509.04V502.66H232.309V518.94H230.285V516.674C229.889 517.393 229.303 517.987 228.525 518.456C227.748 518.911 226.839 519.138 225.797 519.138C224.727 519.138 223.751 518.874 222.871 518.346C222.006 517.818 221.324 517.078 220.825 516.124C220.327 515.171 220.077 514.086 220.077 512.868ZM230.285 512.89C230.285 511.981 230.102 511.189 229.735 510.514C229.369 509.84 228.87 509.326 228.239 508.974C227.623 508.608 226.941 508.424 226.193 508.424C225.445 508.424 224.763 508.6 224.147 508.952C223.531 509.304 223.04 509.818 222.673 510.492C222.307 511.167 222.123 511.959 222.123 512.868C222.123 513.792 222.307 514.599 222.673 515.288C223.04 515.963 223.531 516.484 224.147 516.85C224.763 517.202 225.445 517.378 226.193 517.378C226.941 517.378 227.623 517.202 228.239 516.85C228.87 516.484 229.369 515.963 229.735 515.288C230.102 514.599 230.285 513.8 230.285 512.89ZM246.692 512.45C246.692 512.832 246.67 513.235 246.626 513.66H236.99C237.064 514.848 237.467 515.78 238.2 516.454C238.948 517.114 239.85 517.444 240.906 517.444C241.772 517.444 242.49 517.246 243.062 516.85C243.649 516.44 244.06 515.897 244.294 515.222H246.45C246.128 516.381 245.482 517.327 244.514 518.06C243.546 518.779 242.344 519.138 240.906 519.138C239.762 519.138 238.736 518.882 237.826 518.368C236.932 517.855 236.228 517.129 235.714 516.19C235.201 515.237 234.944 514.137 234.944 512.89C234.944 511.644 235.194 510.551 235.692 509.612C236.191 508.674 236.888 507.955 237.782 507.456C238.692 506.943 239.733 506.686 240.906 506.686C242.05 506.686 243.062 506.936 243.942 507.434C244.822 507.933 245.497 508.622 245.966 509.502C246.45 510.368 246.692 511.35 246.692 512.45ZM244.624 512.032C244.624 511.27 244.456 510.617 244.118 510.074C243.781 509.517 243.319 509.099 242.732 508.82C242.16 508.527 241.522 508.38 240.818 508.38C239.806 508.38 238.941 508.703 238.222 509.348C237.518 509.994 237.115 510.888 237.012 512.032H244.624ZM248.587 512.868C248.587 511.636 248.836 510.558 249.335 509.634C249.834 508.696 250.516 507.97 251.381 507.456C252.261 506.943 253.236 506.686 254.307 506.686C255.363 506.686 256.28 506.914 257.057 507.368C257.834 507.823 258.414 508.395 258.795 509.084V506.884H260.819V518.94H258.795V516.696C258.399 517.4 257.805 517.987 257.013 518.456C256.236 518.911 255.326 519.138 254.285 519.138C253.214 519.138 252.246 518.874 251.381 518.346C250.516 517.818 249.834 517.078 249.335 516.124C248.836 515.171 248.587 514.086 248.587 512.868ZM258.795 512.89C258.795 511.981 258.612 511.189 258.245 510.514C257.878 509.84 257.38 509.326 256.749 508.974C256.133 508.608 255.451 508.424 254.703 508.424C253.955 508.424 253.273 508.6 252.657 508.952C252.041 509.304 251.55 509.818 251.183 510.492C250.816 511.167 250.633 511.959 250.633 512.868C250.633 513.792 250.816 514.599 251.183 515.288C251.55 515.963 252.041 516.484 252.657 516.85C253.273 517.202 253.955 517.378 254.703 517.378C255.451 517.378 256.133 517.202 256.749 516.85C257.38 516.484 257.878 515.963 258.245 515.288C258.612 514.599 258.795 513.8 258.795 512.89ZM266.204 502.66V518.94H264.202V502.66H266.204ZM77.7003 531.128C78.1109 530.41 78.7123 529.823 79.5043 529.368C80.2963 528.914 81.1983 528.686 82.2103 528.686C83.2956 528.686 84.2709 528.943 85.1363 529.456C86.0016 529.97 86.6836 530.696 87.1823 531.634C87.6809 532.558 87.9303 533.636 87.9303 534.868C87.9303 536.086 87.6809 537.171 87.1823 538.124C86.6836 539.078 85.9943 539.818 85.1143 540.346C84.2489 540.874 83.2809 541.138 82.2103 541.138C81.1689 541.138 80.2523 540.911 79.4603 540.456C78.6829 540.002 78.0963 539.422 77.7003 538.718V540.94H75.6983V524.66H77.7003V531.128ZM85.8843 534.868C85.8843 533.959 85.7009 533.167 85.3343 532.492C84.9676 531.818 84.4689 531.304 83.8383 530.952C83.2223 530.6 82.5403 530.424 81.7923 530.424C81.0589 530.424 80.3769 530.608 79.7463 530.974C79.1303 531.326 78.6316 531.847 78.2503 532.536C77.8836 533.211 77.7003 533.996 77.7003 534.89C77.7003 535.8 77.8836 536.599 78.2503 537.288C78.6316 537.963 79.1303 538.484 79.7463 538.85C80.3769 539.202 81.0589 539.378 81.7923 539.378C82.5403 539.378 83.2223 539.202 83.8383 538.85C84.4689 538.484 84.9676 537.963 85.3343 537.288C85.7009 536.599 85.8843 535.792 85.8843 534.868ZM95.8235 541.138C94.6941 541.138 93.6675 540.882 92.7435 540.368C91.8341 539.855 91.1155 539.129 90.5875 538.19C90.0741 537.237 89.8175 536.137 89.8175 534.89C89.8175 533.658 90.0815 532.573 90.6095 531.634C91.1521 530.681 91.8855 529.955 92.8095 529.456C93.7335 528.943 94.7675 528.686 95.9115 528.686C97.0555 528.686 98.0895 528.943 99.0135 529.456C99.9375 529.955 100.663 530.674 101.191 531.612C101.734 532.551 102.005 533.644 102.005 534.89C102.005 536.137 101.727 537.237 101.169 538.19C100.627 539.129 99.8861 539.855 98.9475 540.368C98.0088 540.882 96.9675 541.138 95.8235 541.138ZM95.8235 539.378C96.5421 539.378 97.2168 539.21 97.8475 538.872C98.4781 538.535 98.9841 538.029 99.3655 537.354C99.7615 536.68 99.9595 535.858 99.9595 534.89C99.9595 533.922 99.7688 533.101 99.3875 532.426C99.0061 531.752 98.5075 531.253 97.8915 530.93C97.2755 530.593 96.6081 530.424 95.8895 530.424C95.1561 530.424 94.4815 530.593 93.8655 530.93C93.2641 531.253 92.7801 531.752 92.4135 532.426C92.0468 533.101 91.8635 533.922 91.8635 534.89C91.8635 535.873 92.0395 536.702 92.3915 537.376C92.7581 538.051 93.2421 538.557 93.8435 538.894C94.4448 539.217 95.1048 539.378 95.8235 539.378ZM103.89 534.868C103.89 533.636 104.139 532.558 104.638 531.634C105.136 530.696 105.818 529.97 106.684 529.456C107.564 528.943 108.539 528.686 109.61 528.686C110.666 528.686 111.582 528.914 112.36 529.368C113.137 529.823 113.716 530.395 114.098 531.084V528.884H116.122V540.94H114.098V538.696C113.702 539.4 113.108 539.987 112.316 540.456C111.538 540.911 110.629 541.138 109.588 541.138C108.517 541.138 107.549 540.874 106.684 540.346C105.818 539.818 105.136 539.078 104.638 538.124C104.139 537.171 103.89 536.086 103.89 534.868ZM114.098 534.89C114.098 533.981 113.914 533.189 113.548 532.514C113.181 531.84 112.682 531.326 112.052 530.974C111.436 530.608 110.754 530.424 110.006 530.424C109.258 530.424 108.576 530.6 107.96 530.952C107.344 531.304 106.852 531.818 106.486 532.492C106.119 533.167 105.936 533.959 105.936 534.868C105.936 535.792 106.119 536.599 106.486 537.288C106.852 537.963 107.344 538.484 107.96 538.85C108.576 539.202 109.258 539.378 110.006 539.378C110.754 539.378 111.436 539.202 112.052 538.85C112.682 538.484 113.181 537.963 113.548 537.288C113.914 536.599 114.098 535.8 114.098 534.89ZM121.507 530.842C121.859 530.153 122.358 529.618 123.003 529.236C123.663 528.855 124.462 528.664 125.401 528.664V530.732H124.873C122.629 530.732 121.507 531.95 121.507 534.384V540.94H119.505V528.884H121.507V530.842ZM126.964 534.868C126.964 533.636 127.213 532.558 127.712 531.634C128.211 530.696 128.893 529.97 129.758 529.456C130.638 528.943 131.621 528.686 132.706 528.686C133.645 528.686 134.517 528.906 135.324 529.346C136.131 529.772 136.747 530.336 137.172 531.04V524.66H139.196V540.94H137.172V538.674C136.776 539.393 136.189 539.987 135.412 540.456C134.635 540.911 133.725 541.138 132.684 541.138C131.613 541.138 130.638 540.874 129.758 540.346C128.893 539.818 128.211 539.078 127.712 538.124C127.213 537.171 126.964 536.086 126.964 534.868ZM137.172 534.89C137.172 533.981 136.989 533.189 136.622 532.514C136.255 531.84 135.757 531.326 135.126 530.974C134.51 530.608 133.828 530.424 133.08 530.424C132.332 530.424 131.65 530.6 131.034 530.952C130.418 531.304 129.927 531.818 129.56 532.492C129.193 533.167 129.01 533.959 129.01 534.868C129.01 535.792 129.193 536.599 129.56 537.288C129.927 537.963 130.418 538.484 131.034 538.85C131.65 539.202 132.332 539.378 133.08 539.378C133.828 539.378 134.51 539.202 135.126 538.85C135.757 538.484 136.255 537.963 136.622 537.288C136.989 536.599 137.172 535.8 137.172 534.89ZM143.613 526.926C143.232 526.926 142.909 526.794 142.645 526.53C142.381 526.266 142.249 525.944 142.249 525.562C142.249 525.181 142.381 524.858 142.645 524.594C142.909 524.33 143.232 524.198 143.613 524.198C143.98 524.198 144.288 524.33 144.537 524.594C144.801 524.858 144.933 525.181 144.933 525.562C144.933 525.944 144.801 526.266 144.537 526.53C144.288 526.794 143.98 526.926 143.613 526.926ZM144.581 528.884V540.94H142.579V528.884H144.581ZM153.867 528.664C155.334 528.664 156.522 529.112 157.431 530.006C158.341 530.886 158.795 532.162 158.795 533.834V540.94H156.815V534.12C156.815 532.918 156.515 532.001 155.913 531.37C155.312 530.725 154.491 530.402 153.449 530.402C152.393 530.402 151.55 530.732 150.919 531.392C150.303 532.052 149.995 533.013 149.995 534.274V540.94H147.993V528.884H149.995V530.6C150.391 529.984 150.927 529.508 151.601 529.17C152.291 528.833 153.046 528.664 153.867 528.664ZM167.037 528.686C168.079 528.686 168.988 528.914 169.765 529.368C170.557 529.823 171.144 530.395 171.525 531.084V528.884H173.549V541.204C173.549 542.304 173.315 543.28 172.845 544.13C172.376 544.996 171.701 545.67 170.821 546.154C169.956 546.638 168.944 546.88 167.785 546.88C166.201 546.88 164.881 546.506 163.825 545.758C162.769 545.01 162.146 543.991 161.955 542.7H163.935C164.155 543.434 164.61 544.02 165.299 544.46C165.989 544.915 166.817 545.142 167.785 545.142C168.885 545.142 169.78 544.798 170.469 544.108C171.173 543.419 171.525 542.451 171.525 541.204V538.674C171.129 539.378 170.543 539.965 169.765 540.434C168.988 540.904 168.079 541.138 167.037 541.138C165.967 541.138 164.991 540.874 164.111 540.346C163.246 539.818 162.564 539.078 162.065 538.124C161.567 537.171 161.317 536.086 161.317 534.868C161.317 533.636 161.567 532.558 162.065 531.634C162.564 530.696 163.246 529.97 164.111 529.456C164.991 528.943 165.967 528.686 167.037 528.686ZM171.525 534.89C171.525 533.981 171.342 533.189 170.975 532.514C170.609 531.84 170.11 531.326 169.479 530.974C168.863 530.608 168.181 530.424 167.433 530.424C166.685 530.424 166.003 530.6 165.387 530.952C164.771 531.304 164.28 531.818 163.913 532.492C163.547 533.167 163.363 533.959 163.363 534.868C163.363 535.792 163.547 536.599 163.913 537.288C164.28 537.963 164.771 538.484 165.387 538.85C166.003 539.202 166.685 539.378 167.433 539.378C168.181 539.378 168.863 539.202 169.479 538.85C170.11 538.484 170.609 537.963 170.975 537.288C171.342 536.599 171.525 535.8 171.525 534.89ZM188.782 528.664C189.691 528.664 190.513 528.862 191.246 529.258C191.979 529.64 192.551 530.219 192.962 530.996C193.387 531.774 193.6 532.72 193.6 533.834V540.94H191.62V534.12C191.62 532.918 191.319 532.001 190.718 531.37C190.117 530.725 189.295 530.402 188.254 530.402C187.198 530.402 186.355 530.732 185.724 531.392C185.108 532.052 184.8 533.013 184.8 534.274V540.94H182.798V524.66H184.8V530.6C185.196 529.984 185.739 529.508 186.428 529.17C187.132 528.833 187.917 528.664 188.782 528.664ZM202.128 541.138C200.999 541.138 199.972 540.882 199.048 540.368C198.139 539.855 197.42 539.129 196.892 538.19C196.379 537.237 196.122 536.137 196.122 534.89C196.122 533.658 196.386 532.573 196.914 531.634C197.457 530.681 198.19 529.955 199.114 529.456C200.038 528.943 201.072 528.686 202.216 528.686C203.36 528.686 204.394 528.943 205.318 529.456C206.242 529.955 206.968 530.674 207.496 531.612C208.039 532.551 208.31 533.644 208.31 534.89C208.31 536.137 208.031 537.237 207.474 538.19C206.931 539.129 206.191 539.855 205.252 540.368C204.313 540.882 203.272 541.138 202.128 541.138ZM202.128 539.378C202.847 539.378 203.521 539.21 204.152 538.872C204.783 538.535 205.289 538.029 205.67 537.354C206.066 536.68 206.264 535.858 206.264 534.89C206.264 533.922 206.073 533.101 205.692 532.426C205.311 531.752 204.812 531.253 204.196 530.93C203.58 530.593 202.913 530.424 202.194 530.424C201.461 530.424 200.786 530.593 200.17 530.93C199.569 531.253 199.085 531.752 198.718 532.426C198.351 533.101 198.168 533.922 198.168 534.89C198.168 535.873 198.344 536.702 198.696 537.376C199.063 538.051 199.547 538.557 200.148 538.894C200.749 539.217 201.409 539.378 202.128 539.378ZM221.634 528.884V540.94H219.632V539.158C219.251 539.774 218.716 540.258 218.026 540.61C217.352 540.948 216.604 541.116 215.782 541.116C214.844 541.116 214 540.926 213.252 540.544C212.504 540.148 211.91 539.562 211.47 538.784C211.045 538.007 210.832 537.061 210.832 535.946V528.884H212.812V535.682C212.812 536.87 213.113 537.787 213.714 538.432C214.316 539.063 215.137 539.378 216.178 539.378C217.249 539.378 218.092 539.048 218.708 538.388C219.324 537.728 219.632 536.768 219.632 535.506V528.884H221.634ZM229.283 541.138C228.359 541.138 227.53 540.984 226.797 540.676C226.063 540.354 225.484 539.914 225.059 539.356C224.633 538.784 224.399 538.132 224.355 537.398H226.423C226.481 538 226.76 538.491 227.259 538.872C227.772 539.254 228.439 539.444 229.261 539.444C230.023 539.444 230.625 539.276 231.065 538.938C231.505 538.601 231.725 538.176 231.725 537.662C231.725 537.134 231.49 536.746 231.021 536.496C230.551 536.232 229.825 535.976 228.843 535.726C227.948 535.492 227.215 535.257 226.643 535.022C226.085 534.773 225.601 534.414 225.191 533.944C224.795 533.46 224.597 532.83 224.597 532.052C224.597 531.436 224.78 530.872 225.147 530.358C225.513 529.845 226.034 529.442 226.709 529.148C227.383 528.84 228.153 528.686 229.019 528.686C230.353 528.686 231.431 529.024 232.253 529.698C233.074 530.373 233.514 531.297 233.573 532.47H231.571C231.527 531.84 231.27 531.334 230.801 530.952C230.346 530.571 229.73 530.38 228.953 530.38C228.234 530.38 227.662 530.534 227.237 530.842C226.811 531.15 226.599 531.554 226.599 532.052C226.599 532.448 226.723 532.778 226.973 533.042C227.237 533.292 227.559 533.497 227.941 533.658C228.337 533.805 228.879 533.974 229.569 534.164C230.434 534.399 231.138 534.634 231.681 534.868C232.223 535.088 232.685 535.426 233.067 535.88C233.463 536.335 233.668 536.929 233.683 537.662C233.683 538.322 233.499 538.916 233.133 539.444C232.766 539.972 232.245 540.39 231.571 540.698C230.911 540.992 230.148 541.138 229.283 541.138ZM247.509 534.45C247.509 534.832 247.487 535.235 247.443 535.66H237.807C237.88 536.848 238.283 537.78 239.017 538.454C239.765 539.114 240.667 539.444 241.723 539.444C242.588 539.444 243.307 539.246 243.879 538.85C244.465 538.44 244.876 537.897 245.111 537.222H247.267C246.944 538.381 246.299 539.327 245.331 540.06C244.363 540.779 243.16 541.138 241.723 541.138C240.579 541.138 239.552 540.882 238.643 540.368C237.748 539.855 237.044 539.129 236.531 538.19C236.017 537.237 235.761 536.137 235.761 534.89C235.761 533.644 236.01 532.551 236.509 531.612C237.007 530.674 237.704 529.955 238.599 529.456C239.508 528.943 240.549 528.686 241.723 528.686C242.867 528.686 243.879 528.936 244.759 529.434C245.639 529.933 246.313 530.622 246.783 531.502C247.267 532.368 247.509 533.35 247.509 534.45ZM245.441 534.032C245.441 533.27 245.272 532.617 244.935 532.074C244.597 531.517 244.135 531.099 243.549 530.82C242.977 530.527 242.339 530.38 241.635 530.38C240.623 530.38 239.757 530.703 239.039 531.348C238.335 531.994 237.931 532.888 237.829 534.032H245.441ZM250.789 541.072C250.408 541.072 250.085 540.94 249.821 540.676C249.557 540.412 249.425 540.09 249.425 539.708C249.425 539.327 249.557 539.004 249.821 538.74C250.085 538.476 250.408 538.344 250.789 538.344C251.156 538.344 251.464 538.476 251.713 538.74C251.977 539.004 252.109 539.327 252.109 539.708C252.109 540.09 251.977 540.412 251.713 540.676C251.464 540.94 251.156 541.072 250.789 541.072Z" fill="black"/>
<defs>
<clipPath id="clip0_305_2000">
<rect width="320" height="300" fill="white" transform="translate(3 163)"/>
</clipPath>
</defs>
</svg>
