<svg width="320" height="512" viewBox="0 0 320 512" fill="none" xmlns="http://www.w3.org/2000/svg">
<g clip-path="url(#clip0_305_2000)">
<path d="M147.871 410.365L155.834 410.364L159.622 380.546L147.869 380.547L147.871 410.365Z" fill="#FFB6B6"/>
<path d="M175.154 410.19C175.402 410.595 175.532 411.904 175.532 412.375C175.532 413.824 174.322 414.999 172.83 414.999H148.168C147.15 414.999 146.325 414.197 146.325 413.209V412.212C146.325 412.212 145.105 409.216 147.616 405.524C147.616 405.524 150.738 408.415 155.403 403.887L156.778 401.468L166.735 408.537L172.254 409.197C173.462 409.341 174.533 409.174 175.154 410.19Z" fill="#2F2E41"/>
<path d="M117.654 410.365L125.617 410.364L129.405 380.546L117.652 380.547L117.654 410.365Z" fill="#FFB6B6"/>
<path d="M144.937 410.19C145.185 410.595 145.316 411.904 145.316 412.375C145.316 413.824 144.106 414.999 142.613 414.999H117.952C116.933 414.999 116.108 414.197 116.108 413.209V412.212C116.108 412.212 114.888 409.216 117.4 405.524C117.4 405.524 120.521 408.415 125.186 403.887L126.561 401.468L136.519 408.537L142.038 409.197C143.245 409.341 144.316 409.174 144.937 410.19Z" fill="#2F2E41"/>
<path d="M111.789 250.191L101.717 272.354L114.475 393.602L130.255 394.58L136.634 287.347L142.678 394.906L161.479 392.95L165.939 256.409L111.789 250.191Z" fill="#2F2E41"/>
<path d="M151.473 161.863L131.262 158.277L127.18 162.24L106.417 170.663L109.775 233.894C109.775 233.894 103.06 238.237 106.417 244.214C109.775 250.191 109.103 257.361 109.103 257.361H165.939L163.494 221.509L170.208 175.878L154.518 168.667L151.473 161.863Z" fill="#007BFF"/>
<path d="M142.636 156.427C152.439 156.427 160.386 148.713 160.386 139.196C160.386 129.68 152.439 121.965 142.636 121.965C132.834 121.965 124.887 129.68 124.887 139.196C124.887 148.713 132.834 156.427 142.636 156.427Z" fill="#FFB6B6"/>
<path d="M129.906 154.493C127.78 154.677 124.309 149.396 124.463 144.282C124.563 140.992 121.621 140.345 121.402 136.103C121.275 133.63 125.186 132.859 125.455 130.876C125.942 127.284 128.33 124.866 128.628 124.572C131.201 122.035 133.017 122.86 136.043 119.919C137.865 118.149 137.398 117.664 138.625 116.879C142.166 114.613 148.529 117.069 152.334 120.377C153.651 121.522 158.559 120.271 160.703 123.504C163.229 127.313 162.642 135.081 161.559 136.106C160.901 136.729 159.398 135.207 155.325 134.23C151.554 133.326 155.111 137.798 150.752 137.047C145.596 136.16 144.587 134.637 142.656 135.55C140.615 136.516 139.021 139.505 139.484 141.855C139.713 143.021 140.379 143.671 140.004 144.264C139.318 145.347 138.532 144.285 137.652 145.371C136.629 146.635 139.171 149.877 138.692 150.19C138.596 150.253 138.304 150.245 135.561 147.683C134.465 146.66 134.144 146.032 133.93 146.129C133.583 146.285 131.308 148.342 132.177 149.966C133.528 152.493 131.799 152.572 132.177 154.273C132.567 156.029 131.258 154.375 129.906 154.493Z" fill="#2F2E41"/>
<path d="M148.774 238.212C143.541 240.863 140.708 245.634 142.447 248.867C144.186 252.1 149.837 252.57 155.072 249.917C157.178 248.885 158.999 247.378 160.382 245.523L182.409 234.016L176.627 224.096L155.526 236.493C153.166 236.535 150.851 237.124 148.774 238.212Z" fill="#FFB6B6"/>
<path d="M166.18 176.53C166.18 176.53 172.223 172.618 176.252 183.048C179.43 191.277 185.325 215.531 187.672 225.403C188.295 228.024 187.394 230.762 185.323 232.549L182.631 234.872L169.537 244.324L160.609 231.712L171.452 225.366L159.087 199.325L166.18 176.53Z" fill="#007BFF"/>
<path d="M166.42 230.462V217.094C166.42 216.323 167.066 215.696 167.86 215.696H174.524C175.318 215.696 175.964 216.323 175.964 217.094V230.462C175.964 231.232 175.318 231.86 174.524 231.86H167.86C167.066 231.86 166.42 231.232 166.42 230.462Z" fill="#007BFF"/>
<path d="M261.645 208.947C272.545 208.947 281.382 200.369 281.382 189.787C281.382 179.205 272.545 170.627 261.645 170.627C250.745 170.627 241.908 179.205 241.908 189.787C241.908 200.369 250.745 208.947 261.645 208.947Z" fill="#FF6884"/>
<path d="M242.154 311.289L219.851 311.588L210.91 214.8C210.693 212.451 211.474 210.076 213.054 208.284L234.985 183.411C238.055 179.93 243.275 179.302 247.127 181.951L274.595 200.844C276.835 202.385 278.224 204.795 278.404 207.455L298.454 272.847L295.765 294.655L295.791 294.685L298.97 310.529L242.154 311.289Z" fill="#E6E6E6"/>
<path d="M237.482 205.916L237.123 201.424C237.028 200.238 237.945 199.199 239.166 199.106L245.668 198.617C246.89 198.525 247.96 199.414 248.055 200.6L248.414 205.093C248.509 206.278 247.592 207.318 246.371 207.41L239.869 207.9C238.648 207.992 237.577 207.102 237.482 205.916Z" fill="#007BFF"/>
<path d="M226.527 241.821L225.198 225.2C225.103 224.015 226.02 222.975 227.241 222.883L236.866 222.158C238.088 222.066 239.159 222.956 239.253 224.142L240.582 240.763C240.677 241.948 239.76 242.988 238.539 243.08L228.914 243.805C227.692 243.897 226.622 243.007 226.527 241.821Z" fill="#3F3D56"/>
<path d="M251.394 279.088C250.227 279.136 249.216 278.29 249.091 277.163L247.32 261.135C247.245 260.451 247.499 259.79 248.019 259.323C248.539 258.855 249.237 258.66 249.934 258.784L250.431 258.873C251.419 259.051 252.164 259.855 252.241 260.827L253.516 276.766C253.563 277.355 253.366 277.923 252.963 278.365C252.577 278.787 252.051 279.04 251.475 279.083C251.448 279.086 251.421 279.087 251.394 279.088Z" fill="#3F3D56"/>
<path d="M231.022 278.393L229.689 261.724C229.595 260.547 230.469 259.531 231.678 259.411L240.41 258.545C241.621 258.437 242.715 259.284 242.845 260.462L244.698 277.3C244.763 277.885 244.585 278.456 244.197 278.908C243.81 279.36 243.265 279.634 242.661 279.68L233.409 280.377C232.187 280.469 231.116 279.579 231.022 278.393Z" fill="#3F3D56"/>
<path d="M283.64 285.888L291.442 297.205L293.293 310.454L298.78 310.379L295.646 294.753L283.189 280.439C282.354 282.208 282.525 284.271 283.64 285.888Z" fill="#CCCCCC"/>
<path d="M292.77 306.662L270.539 308.634L270.568 308.936L292.798 306.964L292.77 306.662Z" fill="#3F3D56"/>
<path d="M291.206 304.087L270.118 305.837L270.145 306.14L291.232 304.39L291.206 304.087Z" fill="#3F3D56"/>
<path d="M289.892 301.435L269.739 303.338L269.77 303.641L289.922 301.738L289.892 301.435Z" fill="#3F3D56"/>
<path d="M289.048 298.763L269.715 300.848L269.75 301.15L289.083 299.065L289.048 298.763Z" fill="#3F3D56"/>
<path d="M287.917 296.412L269.346 298.45L269.381 298.753L287.953 296.714L287.917 296.412Z" fill="#3F3D56"/>
<path d="M286.503 294.374L268.365 295.741L268.389 296.044L286.527 294.677L286.503 294.374Z" fill="#3F3D56"/>
<path d="M285.394 292.317L267.782 293.846L267.81 294.149L285.422 292.62L285.394 292.317Z" fill="#3F3D56"/>
<path d="M284.284 290.267L267.247 292.105L267.282 292.407L284.318 290.57L284.284 290.267Z" fill="#3F3D56"/>
<path d="M283.493 288.203L266.649 289.761L266.679 290.064L283.523 288.506L283.493 288.203Z" fill="#3F3D56"/>
<path d="M282.073 286.197L265.962 287.904L265.996 288.206L282.107 286.5L282.073 286.197Z" fill="#3F3D56"/>
<path d="M281.304 284.394L265.309 285.752L265.336 286.055L281.332 284.697L281.304 284.394Z" fill="#3F3D56"/>
<path d="M263.628 279.445L261.984 258.882C261.889 257.696 262.806 256.656 264.027 256.564L274.277 255.792C275.498 255.7 276.569 256.59 276.664 257.776L278.308 278.339C278.403 279.524 277.486 280.564 276.265 280.656L266.015 281.428C264.793 281.52 263.723 280.63 263.628 279.445Z" fill="#007BFF"/>
<path d="M242.154 311.29L223.92 311.535L223.773 311.537L222.683 297.905C222.546 296.181 223.878 294.669 225.654 294.535L243.576 293.185C245.351 293.052 246.908 294.345 247.046 296.069L248.226 310.832L248.07 310.844L242.154 311.29Z" fill="#CCCCCC"/>
<path d="M261.896 242.055L260.64 226.343C260.545 225.158 261.461 224.118 262.683 224.026L266.061 223.771C267.283 223.679 268.353 224.569 268.448 225.755L269.704 241.467C269.799 242.652 268.882 243.692 267.661 243.784L264.283 244.038C263.061 244.13 261.99 243.24 261.896 242.055Z" fill="#3F3D56"/>
<path d="M270.836 310.654L268.833 297.383L265.003 284.86L263.944 281.432C262.254 280.493 260.188 281.834 260.435 283.708L260.631 285.189L264.46 297.713L266.463 310.984" fill="#CCCCCC"/>
<path d="M46.3887 313.736L24.086 314.034L15.1445 217.246C14.9275 214.897 15.7092 212.522 17.2892 210.73L39.2197 185.857C42.2897 182.376 47.5095 181.748 51.3619 184.397L78.8294 203.29C81.0702 204.831 82.4589 207.241 82.639 209.901L102.689 275.293L99.9999 297.101L100.026 297.131L103.204 312.975L46.3887 313.736Z" fill="#E6E6E6"/>
<path d="M41.7171 208.362L41.3579 203.87C41.2631 202.684 42.1798 201.644 43.4012 201.552L49.9029 201.062C51.1244 200.97 52.1951 201.86 52.2899 203.046L52.649 207.538C52.7438 208.724 51.8273 209.764 50.6059 209.856L44.1042 210.346C42.8827 210.438 41.8119 209.548 41.7171 208.362Z" fill="#007BFF"/>
<path d="M30.7616 244.267L29.4329 227.647C29.3381 226.461 30.2547 225.421 31.4762 225.329L41.1013 224.604C42.3228 224.512 43.3935 225.402 43.4883 226.588L44.817 243.209C44.9118 244.394 43.9953 245.434 42.7739 245.526L33.1487 246.251C31.9273 246.343 30.8564 245.453 30.7616 244.267Z" fill="#3F3D56"/>
<path d="M55.6287 281.534C54.4621 281.582 53.4508 280.736 53.326 279.609L51.5551 263.581C51.4795 262.897 51.7343 262.237 52.2542 261.769C52.7741 261.301 53.472 261.106 54.169 261.23L54.6658 261.319C55.654 261.497 56.3985 262.301 56.4763 263.273L57.7505 279.212C57.7975 279.801 57.6011 280.369 57.1975 280.811C56.8118 281.233 56.2859 281.486 55.7094 281.53C55.6826 281.532 55.6557 281.533 55.6287 281.534Z" fill="#3F3D56"/>
<path d="M35.2564 280.839L33.9238 264.17C33.8297 262.993 34.7036 261.977 35.9131 261.857L44.6448 260.991C45.8561 260.883 46.9502 261.73 47.0801 262.908L48.9331 279.746C48.9974 280.331 48.8196 280.902 48.4323 281.354C48.0453 281.806 47.4995 282.08 46.8957 282.125L37.6435 282.823C36.4221 282.915 35.3512 282.025 35.2564 280.839Z" fill="#3F3D56"/>
<path d="M87.8746 288.334L95.6773 299.651L97.5283 312.9L103.015 312.825L99.8804 297.199L87.4241 282.885C86.5892 284.654 86.7597 286.717 87.8746 288.334Z" fill="#CCCCCC"/>
<path d="M97.0045 309.107L74.7742 311.079L74.8027 311.382L97.033 309.41L97.0045 309.107Z" fill="#3F3D56"/>
<path d="M95.4405 306.533L74.3531 308.283L74.3798 308.586L95.4672 306.836L95.4405 306.533Z" fill="#3F3D56"/>
<path d="M94.1269 303.881L73.9741 305.784L74.0045 306.087L94.1573 304.184L94.1269 303.881Z" fill="#3F3D56"/>
<path d="M93.2828 301.209L73.9502 303.294L73.9848 303.596L93.3175 301.511L93.2828 301.209Z" fill="#3F3D56"/>
<path d="M92.1521 298.858L73.5804 300.896L73.6157 301.199L92.1874 299.16L92.1521 298.858Z" fill="#3F3D56"/>
<path d="M90.7376 296.82L72.5995 298.187L72.6237 298.49L90.7618 297.123L90.7376 296.82Z" fill="#3F3D56"/>
<path d="M89.6286 294.763L72.0172 296.292L72.0451 296.595L89.6565 295.066L89.6286 294.763Z" fill="#3F3D56"/>
<path d="M88.5186 292.713L71.4819 294.551L71.5165 294.853L88.5532 293.016L88.5186 292.713Z" fill="#3F3D56"/>
<path d="M87.7278 290.649L70.884 292.208L70.9138 292.51L87.7575 290.952L87.7278 290.649Z" fill="#3F3D56"/>
<path d="M86.3081 288.643L70.1973 290.35L70.2313 290.652L86.3421 288.945L86.3081 288.643Z" fill="#3F3D56"/>
<path d="M85.5391 286.84L69.5437 288.198L69.571 288.501L85.5664 287.143L85.5391 286.84Z" fill="#3F3D56"/>
<path d="M67.8626 281.891L66.2188 261.328C66.124 260.142 67.0406 259.102 68.2621 259.01L78.5119 258.238C79.7333 258.146 80.8041 259.036 80.8989 260.222L82.5427 280.785C82.6375 281.97 81.721 283.01 80.4996 283.102L70.2498 283.874C69.0283 283.966 67.9574 283.076 67.8626 281.891Z" fill="#007BFF"/>
<path d="M46.3887 313.735L28.155 313.98L28.008 313.982L26.9182 300.351C26.7804 298.627 28.113 297.115 29.8889 296.981L47.8104 295.631C49.5862 295.497 51.1431 296.791 51.2809 298.515L52.4611 313.278L52.305 313.29L46.3887 313.735Z" fill="#CCCCCC"/>
<path d="M66.1304 244.501L64.8744 228.789C64.7796 227.604 65.6963 226.564 66.9177 226.472L70.296 226.217C71.5174 226.125 72.5882 227.015 72.683 228.201L73.939 243.913C74.0338 245.098 73.1173 246.138 71.8958 246.23L68.5176 246.484C67.2961 246.576 66.2252 245.687 66.1304 244.501Z" fill="#3F3D56"/>
<path d="M75.071 313.1L73.0674 299.829L69.2382 287.306L68.1786 283.878C66.4893 282.939 64.4227 284.28 64.67 286.154L64.8654 287.635L68.6946 300.159L70.6982 313.43" fill="#CCCCCC"/>
<path d="M163.992 312.298L141.69 312.596L132.749 215.808C132.532 213.459 133.313 211.084 134.893 209.292L156.824 184.419C159.894 180.937 165.113 180.31 168.966 182.96L196.433 201.852C198.674 203.393 210.729 212.14 210.91 214.8L205.181 281.388L217.604 295.663L217.63 295.693L220.808 311.537L163.992 312.298Z" fill="#E6E6E6"/>
<path d="M159.321 206.924L158.962 202.432C158.867 201.246 159.784 200.206 161.006 200.114L167.507 199.624C168.729 199.532 169.799 200.422 169.894 201.608L170.253 206.1C170.348 207.286 169.431 208.326 168.21 208.418L161.708 208.908C160.487 209 159.416 208.11 159.321 206.924Z" fill="#007BFF"/>
<path d="M148.366 242.83L147.037 226.209C146.942 225.023 147.859 223.983 149.08 223.891L158.705 223.166C159.927 223.074 160.998 223.964 161.092 225.15L162.421 241.771C162.516 242.956 161.599 243.996 160.378 244.088L150.753 244.813C149.531 244.905 148.461 244.015 148.366 242.83Z" fill="#3F3D56"/>
<path d="M170.071 260.554C169.625 260.956 169.406 261.523 169.471 262.111L171.242 278.139C171.349 279.107 172.218 279.833 173.22 279.792C173.746 279.773 174.221 279.55 174.567 279.171C174.914 278.791 175.083 278.304 175.042 277.798L173.768 261.859C173.701 261.023 173.062 260.333 172.213 260.181L171.716 260.091C171.548 260.061 171.379 260.053 171.214 260.065C170.792 260.097 170.392 260.265 170.071 260.554Z" fill="#3F3D56"/>
<path d="M143.671 281.718C143.202 281.342 142.918 280.81 142.871 280.222L141.597 264.283C141.519 263.31 142.127 262.405 143.075 262.081L143.552 261.918C144.22 261.691 144.941 261.78 145.529 262.164C146.117 262.548 146.474 263.163 146.508 263.85L147.306 279.951C147.362 281.083 146.497 282.071 145.337 282.198C145.31 282.201 145.283 282.203 145.256 282.205C144.68 282.249 144.12 282.077 143.671 281.718Z" fill="#3F3D56"/>
<path d="M205.479 286.896L213.281 298.213L215.132 311.462L220.619 311.387L217.484 295.761L205.028 281.447C204.193 283.216 204.364 285.279 205.479 286.896Z" fill="#CCCCCC"/>
<path d="M214.609 307.669L192.378 309.641L192.407 309.944L214.637 307.972L214.609 307.669Z" fill="#3F3D56"/>
<path d="M213.045 305.095L191.957 306.845L191.984 307.148L213.071 305.398L213.045 305.095Z" fill="#3F3D56"/>
<path d="M211.731 302.443L191.578 304.346L191.608 304.649L211.761 302.746L211.731 302.443Z" fill="#3F3D56"/>
<path d="M210.887 299.771L191.554 301.856L191.589 302.158L210.921 300.073L210.887 299.771Z" fill="#3F3D56"/>
<path d="M209.756 297.42L191.184 299.458L191.22 299.761L209.791 297.722L209.756 297.42Z" fill="#3F3D56"/>
<path d="M208.342 295.382L190.203 296.749L190.228 297.052L208.366 295.685L208.342 295.382Z" fill="#3F3D56"/>
<path d="M207.233 293.325L189.621 294.854L189.649 295.157L207.26 293.628L207.233 293.325Z" fill="#3F3D56"/>
<path d="M206.123 291.275L189.086 293.113L189.121 293.415L206.157 291.578L206.123 291.275Z" fill="#3F3D56"/>
<path d="M205.332 289.211L188.488 290.77L188.518 291.072L205.362 289.514L205.332 289.211Z" fill="#3F3D56"/>
<path d="M203.912 287.205L187.801 288.912L187.835 289.214L203.946 287.508L203.912 287.205Z" fill="#3F3D56"/>
<path d="M203.143 285.402L187.148 286.76L187.175 287.063L203.17 285.705L203.143 285.402Z" fill="#3F3D56"/>
<path d="M185.467 280.453L183.823 259.89C183.728 258.704 184.645 257.664 185.866 257.572L196.116 256.8C197.337 256.708 198.408 257.598 198.503 258.784L200.147 279.347C200.241 280.532 199.325 281.572 198.104 281.664L187.854 282.436C186.632 282.528 185.561 281.638 185.467 280.453Z" fill="#007BFF"/>
<path d="M163.992 312.298L145.759 312.543L145.612 312.544L144.522 298.913C144.384 297.189 145.717 295.677 147.493 295.543L165.415 294.193C167.19 294.059 168.747 295.353 168.885 297.077L170.065 311.84L169.909 311.852L163.992 312.298Z" fill="#CCCCCC"/>
<path d="M183.734 243.063L182.478 227.351C182.384 226.166 183.3 225.126 184.522 225.034L187.9 224.779C189.121 224.687 190.192 225.577 190.287 226.763L191.543 242.474C191.638 243.66 190.721 244.7 189.5 244.792L186.122 245.046C184.9 245.138 183.829 244.249 183.734 243.063Z" fill="#3F3D56"/>
<path d="M192.675 311.662L190.672 298.391L186.842 285.868L185.783 282.44C184.093 281.501 182.027 282.842 182.274 284.716L182.47 286.197L186.299 298.721L188.302 311.992" fill="#CCCCCC"/>
<path d="M319.992 310.122L34.3738 313.717L34.3819 314.325L320 310.731L319.992 310.122Z" fill="#CCCCCC"/>
<path d="M129.786 220.704C136.852 220.704 142.579 215.144 142.579 208.286C142.579 201.427 136.852 195.867 129.786 195.867C122.721 195.867 116.994 201.427 116.994 208.286C116.994 215.144 122.721 220.704 129.786 220.704Z" fill="#007BFF"/>
<path d="M138.088 195.203C137.341 194.779 136.202 194.999 135.791 195.787C134.171 198.899 132.99 202.157 132.221 205.529C130.992 204.059 129.764 202.589 128.535 201.119C127.964 200.435 126.755 200.542 126.161 201.119C125.465 201.795 125.588 202.738 126.161 203.424C128.117 205.764 130.072 208.104 132.028 210.444C132.441 210.938 133.308 211.017 133.861 210.781C134.53 210.496 134.802 209.969 134.893 209.292C135.448 205.176 136.764 201.133 138.691 197.432C139.099 196.647 138.904 195.666 138.088 195.203Z" fill="white"/>
<path d="M136.824 235.529C142.566 236.86 147.927 235.062 148.799 231.515C149.671 227.967 145.723 224.014 139.979 222.684C137.692 222.122 135.3 222.099 133.002 222.619L108.6 217.279L106.263 228.449L130.567 232.527C132.376 233.999 134.521 235.028 136.824 235.529Z" fill="#FFB6B6"/>
<path d="M110.446 173.922L106.417 170.663C106.417 170.663 98.3595 174.574 97.0165 177.833C95.6736 181.093 87.6157 212.382 87.6157 212.382C87.6157 212.382 86.0348 229.531 90.1827 231.712C94.3306 233.894 120.519 232.59 120.519 232.59L122.533 219.553L111.789 215.642L110.446 173.922Z" fill="#007BFF"/>
<path d="M271.135 356.507C270.568 355.579 268.116 356.572 267.665 355.73C267.216 354.891 269.494 353.612 270.796 350.691C271.031 350.165 272.511 346.845 271.415 345.821C269.339 343.879 259.839 351.891 256.515 349.269C255.785 348.694 255.275 347.545 253.067 345.68C252.188 344.938 251.657 344.603 251.143 344.728C250.414 344.905 250.356 345.853 249.574 347.716C248.401 350.511 247.707 350.342 247.023 352.572C246.516 354.227 246.632 355.19 246.035 355.377C245.19 355.642 244.412 353.887 243.341 354.044C242.249 354.204 241.588 356.249 241.38 357.779C240.988 360.651 242.074 362.547 242.677 364.539C243.331 366.705 243.72 369.999 242.208 374.661L227.249 415.577C230.552 407.181 240.114 384.166 244.132 375.614C245.292 373.145 246.573 370.64 249.202 369.652C251.734 368.701 255.211 369.269 259.644 368.232C260.162 368.111 261.599 367.756 261.779 366.936C261.929 366.258 261.084 365.879 261.214 365.244C261.388 364.392 263.05 364.381 265.092 363.398C266.532 362.705 267.429 361.881 268.2 361.172C268.433 360.958 271.89 357.742 271.135 356.507Z" fill="#F2F2F2"/>
<path d="M212.283 378.046C211.65 378.049 211.445 379.504 210.889 379.476C210.335 379.448 210.346 377.993 209.245 376.53C209.046 376.266 207.795 374.603 206.961 374.83C205.381 375.259 206.69 382.097 204.405 382.924C203.904 383.106 203.176 383.018 201.596 383.532C200.967 383.736 200.645 383.893 200.56 384.173C200.438 384.572 200.901 384.873 201.617 385.783C202.692 387.149 202.406 387.431 203.336 388.4C204.027 389.119 204.547 389.341 204.469 389.68C204.36 390.159 203.248 390.023 203.018 390.579C202.784 391.146 203.627 392.05 204.341 392.591C205.68 393.606 206.951 393.636 208.133 393.924C209.417 394.237 211.194 395.002 213.115 397.067L229.485 416C226.193 412.004 217.316 400.808 214.152 396.425C213.238 395.16 212.341 393.828 212.601 392.29C212.85 390.809 214.14 389.316 214.895 386.905C214.984 386.623 215.219 385.836 214.856 385.513C214.556 385.246 214.121 385.54 213.837 385.295C213.457 384.966 213.931 384.171 214.023 382.914C214.088 382.028 213.931 381.363 213.795 380.791C213.754 380.618 213.125 378.043 212.283 378.046Z" fill="#F2F2F2"/>
<path d="M224.907 380.797L224.525 377.493L224.7 377.243C225.506 376.085 225.916 374.954 225.921 373.88C225.922 373.709 225.914 373.539 225.906 373.365C225.873 372.676 225.832 371.819 226.292 370.82C226.55 370.264 227.275 368.975 228.364 369.134C228.657 369.174 228.879 369.305 229.048 369.458C229.072 369.42 229.098 369.382 229.125 369.34C229.464 368.838 229.733 368.622 229.992 368.415C230.191 368.255 230.396 368.091 230.718 367.702C230.859 367.531 230.969 367.381 231.062 367.255C231.344 366.874 231.712 366.419 232.361 366.427C233.055 366.459 233.418 367.016 233.659 367.384C234.088 368.042 234.283 368.515 234.412 368.83C234.459 368.944 234.512 369.074 234.539 369.114C234.763 369.433 236.58 369.134 237.264 369.026C238.801 368.777 240.132 368.562 240.68 369.503C241.072 370.176 240.781 371.066 239.786 372.219C239.477 372.578 239.147 372.851 238.855 373.065C239.097 373.205 239.314 373.421 239.402 373.759C239.609 374.56 238.9 375.362 237.295 376.147C236.897 376.343 236.36 376.605 235.608 376.731C235.254 376.79 234.935 376.804 234.663 376.812C234.657 376.965 234.62 377.131 234.524 377.302C234.242 377.805 233.655 378.044 232.771 377.986C231.799 377.937 230.997 377.757 230.291 377.599C229.674 377.462 229.142 377.345 228.725 377.372C227.951 377.433 227.354 378.034 226.654 378.814L224.907 380.797Z" fill="#F2F2F2"/>
<path d="M226.675 361.126L223.48 362.322L223.186 362.222C221.828 361.759 220.597 361.66 219.526 361.928C219.355 361.971 219.187 362.022 219.016 362.073C218.338 362.279 217.495 362.535 216.383 362.356C215.763 362.255 214.295 361.902 214.177 360.838C214.143 360.552 214.217 360.311 214.326 360.114C214.282 360.101 214.237 360.086 214.189 360.071C213.602 359.88 213.32 359.683 213.047 359.492C212.838 359.346 212.622 359.195 212.153 358.991C211.947 358.902 211.769 358.836 211.62 358.781C211.169 358.613 210.623 358.383 210.466 357.771C210.322 357.112 210.784 356.63 211.09 356.31C211.636 355.74 212.059 355.437 212.339 355.236C212.442 355.163 212.557 355.08 212.59 355.044C212.851 354.754 212.093 353.123 211.812 352.508C211.174 351.128 210.622 349.933 211.421 349.18C211.992 348.64 212.953 348.688 214.354 349.329C214.79 349.529 215.146 349.769 215.433 349.99C215.511 349.727 215.671 349.468 215.986 349.3C216.731 348.903 217.71 349.365 218.899 350.673C219.196 350.997 219.593 351.434 219.909 352.108C220.058 352.426 220.153 352.722 220.23 352.976C220.384 352.942 220.559 352.935 220.753 352.982C221.325 353.119 221.713 353.609 221.88 354.454C222.077 355.38 222.101 356.178 222.123 356.882C222.142 357.496 222.161 358.025 222.294 358.41C222.551 359.121 223.301 359.529 224.256 359.988L226.675 361.126Z" fill="#F2F2F2"/>
<path d="M224.907 351.393L224.525 348.09L224.7 347.839C225.506 346.681 225.916 345.55 225.921 344.476C225.922 344.306 225.914 344.135 225.906 343.961C225.873 343.272 225.832 342.415 226.292 341.417C226.55 340.86 227.275 339.571 228.364 339.73C228.657 339.77 228.879 339.901 229.048 340.054C229.072 340.016 229.098 339.978 229.125 339.936C229.464 339.434 229.733 339.218 229.992 339.011C230.191 338.851 230.396 338.687 230.718 338.298C230.859 338.127 230.969 337.977 231.062 337.851C231.344 337.47 231.712 337.015 232.361 337.023C233.055 337.055 233.418 337.612 233.659 337.98C234.088 338.638 234.283 339.111 234.412 339.426C234.459 339.541 234.512 339.67 234.539 339.71C234.763 340.029 236.58 339.73 237.264 339.622C238.801 339.373 240.132 339.158 240.68 340.099C241.072 340.772 240.781 341.662 239.786 342.816C239.477 343.175 239.147 343.447 238.855 343.661C239.097 343.802 239.314 344.017 239.402 344.355C239.609 345.156 238.9 345.958 237.295 346.743C236.897 346.939 236.36 347.201 235.608 347.327C235.254 347.386 234.935 347.4 234.663 347.408C234.657 347.562 234.62 347.728 234.524 347.898C234.242 348.401 233.655 348.64 232.771 348.583C231.799 348.533 230.997 348.353 230.291 348.195C229.674 348.058 229.142 347.941 228.725 347.968C227.951 348.029 227.354 348.63 226.654 349.411L224.907 351.393Z" fill="#F2F2F2"/>
<path d="M228.389 415.523L227.676 415.089L226.844 415.181C226.831 415.106 226.786 414.934 226.718 414.664C226.345 413.187 225.211 408.692 224.264 401.612C223.604 396.67 223.23 391.589 223.152 386.508C223.075 381.419 223.323 377.567 223.522 374.47C223.673 372.135 223.855 369.911 224.034 367.745C224.511 361.957 224.96 356.49 224.626 350.438C224.552 349.087 224.396 346.274 222.704 343.281C221.722 341.546 220.37 340.005 218.684 338.703L219.732 337.424C221.593 338.863 223.089 340.569 224.18 342.497C226.056 345.815 226.225 348.879 226.307 350.352C226.647 356.511 226.193 362.03 225.711 367.874C225.534 370.032 225.351 372.246 225.202 374.572C225.004 377.64 224.759 381.459 224.835 386.483C224.911 391.503 225.28 396.522 225.932 401.401C226.867 408.392 227.985 412.82 228.353 414.275C228.548 415.052 228.589 415.215 228.389 415.523Z" fill="#F2F2F2"/>
<path d="M215.597 341.299C215.528 341.299 215.459 341.297 215.388 341.292C213.955 341.217 212.628 340.385 211.443 338.818C210.888 338.081 210.604 337.24 210.037 335.564C209.949 335.305 209.522 333.994 209.262 332.19C209.092 331.011 209.113 330.518 209.354 330.082C209.621 329.597 210.053 329.259 210.54 329.031C210.518 328.875 210.535 328.714 210.605 328.549C210.892 327.868 211.654 327.957 212.067 328.001C212.276 328.026 212.536 328.06 212.817 328.045C213.259 328.024 213.497 327.897 213.856 327.705C214.201 327.522 214.629 327.294 215.264 327.168C216.516 326.914 217.565 327.259 217.911 327.372C219.731 327.961 220.628 329.334 221.667 330.925C221.874 331.244 222.585 332.405 223.054 333.997C223.392 335.146 223.345 335.656 223.243 336.036C223.036 336.816 222.547 337.263 221.305 338.248C220.009 339.281 219.358 339.797 218.799 340.112C217.499 340.841 216.682 341.299 215.597 341.299Z" fill="#F2F2F2"/>
<path d="M287.423 414.78C287.423 415.082 287.17 415.328 286.859 415.328H0.564069C0.252546 415.328 0 415.082 0 414.78C0 414.478 0.252539 414.232 0.564069 414.232H286.859C287.17 414.232 287.423 414.478 287.423 414.78Z" fill="#E6E6E6"/>
</g>
<path d="M24.5 10.625L19.35 28H16.125L12.475 14.85L8.6 28L5.4 28.025L0.475 10.625H3.5L7.1 24.775L11 10.625H14.2L17.825 24.7L21.45 10.625H24.5ZM39.4756 20.775C39.4756 21.2917 39.4423 21.7583 39.3756 22.175H28.8506C28.9339 23.275 29.3423 24.1583 30.0756 24.825C30.8089 25.4917 31.7089 25.825 32.7756 25.825C34.3089 25.825 35.3923 25.1833 36.0256 23.9H39.1006C38.6839 25.1667 37.9256 26.2083 36.8256 27.025C35.7423 27.825 34.3923 28.225 32.7756 28.225C31.4589 28.225 30.2756 27.9333 29.2256 27.35C28.1923 26.75 27.3756 25.9167 26.7756 24.85C26.1923 23.7667 25.9006 22.5167 25.9006 21.1C25.9006 19.6833 26.1839 18.4417 26.7506 17.375C27.3339 16.2917 28.1423 15.4583 29.1756 14.875C30.2256 14.2917 31.4256 14 32.7756 14C34.0756 14 35.2339 14.2833 36.2506 14.85C37.2673 15.4167 38.0589 16.2167 38.6256 17.25C39.1923 18.2667 39.4756 19.4417 39.4756 20.775ZM36.5006 19.875C36.4839 18.825 36.1089 17.9833 35.3756 17.35C34.6423 16.7167 33.7339 16.4 32.6506 16.4C31.6673 16.4 30.8256 16.7167 30.1256 17.35C29.4256 17.9667 29.0089 18.8083 28.8756 19.875H36.5006ZM45.1303 9.5V28H42.2803V9.5H45.1303ZM47.9221 21.1C47.9221 19.6833 48.2054 18.4417 48.7721 17.375C49.3554 16.2917 50.1554 15.4583 51.1721 14.875C52.1887 14.2917 53.3554 14 54.6721 14C56.3387 14 57.7137 14.4 58.7971 15.2C59.8971 15.9833 60.6387 17.1083 61.0221 18.575H57.9471C57.6971 17.8917 57.2971 17.3583 56.7471 16.975C56.1971 16.5917 55.5054 16.4 54.6721 16.4C53.5054 16.4 52.5721 16.8167 51.8721 17.65C51.1887 18.4667 50.8471 19.6167 50.8471 21.1C50.8471 22.5833 51.1887 23.7417 51.8721 24.575C52.5721 25.4083 53.5054 25.825 54.6721 25.825C56.3221 25.825 57.4137 25.1 57.9471 23.65H61.0221C60.6221 25.05 59.8721 26.1667 58.7721 27C57.6721 27.8167 56.3054 28.225 54.6721 28.225C53.3554 28.225 52.1887 27.9333 51.1721 27.35C50.1554 26.75 49.3554 25.9167 48.7721 24.85C48.2054 23.7667 47.9221 22.5167 47.9221 21.1ZM69.8373 28.225C68.5373 28.225 67.3623 27.9333 66.3123 27.35C65.2623 26.75 64.4373 25.9167 63.8373 24.85C63.2373 23.7667 62.9373 22.5167 62.9373 21.1C62.9373 19.7 63.2456 18.4583 63.8623 17.375C64.479 16.2917 65.3206 15.4583 66.3873 14.875C67.454 14.2917 68.6456 14 69.9623 14C71.279 14 72.4706 14.2917 73.5373 14.875C74.604 15.4583 75.4456 16.2917 76.0623 17.375C76.679 18.4583 76.9873 19.7 76.9873 21.1C76.9873 22.5 76.6706 23.7417 76.0373 24.825C75.404 25.9083 74.5373 26.75 73.4373 27.35C72.354 27.9333 71.154 28.225 69.8373 28.225ZM69.8373 25.75C70.5706 25.75 71.254 25.575 71.8873 25.225C72.5373 24.875 73.0623 24.35 73.4623 23.65C73.8623 22.95 74.0623 22.1 74.0623 21.1C74.0623 20.1 73.8706 19.2583 73.4873 18.575C73.104 17.875 72.5956 17.35 71.9623 17C71.329 16.65 70.6456 16.475 69.9123 16.475C69.179 16.475 68.4956 16.65 67.8623 17C67.2456 17.35 66.754 17.875 66.3873 18.575C66.0206 19.2583 65.8373 20.1 65.8373 21.1C65.8373 22.5833 66.2123 23.7333 66.9623 24.55C67.729 25.35 68.6873 25.75 69.8373 25.75ZM96.4797 14C97.563 14 98.5297 14.225 99.3797 14.675C100.246 15.125 100.921 15.7917 101.405 16.675C101.905 17.5583 102.155 18.625 102.155 19.875V28H99.3297V20.3C99.3297 19.0667 99.0214 18.125 98.4047 17.475C97.788 16.8083 96.9464 16.475 95.8797 16.475C94.813 16.475 93.963 16.8083 93.3297 17.475C92.713 18.125 92.4047 19.0667 92.4047 20.3V28H89.5797V20.3C89.5797 19.0667 89.2714 18.125 88.6547 17.475C88.038 16.8083 87.1964 16.475 86.1297 16.475C85.063 16.475 84.213 16.8083 83.5797 17.475C82.963 18.125 82.6547 19.0667 82.6547 20.3V28H79.8047V14.225H82.6547V15.8C83.1214 15.2333 83.713 14.7917 84.4297 14.475C85.1464 14.1583 85.913 14 86.7297 14C87.8297 14 88.813 14.2333 89.6797 14.7C90.5464 15.1667 91.213 15.8417 91.6797 16.725C92.0964 15.8917 92.7464 15.2333 93.6297 14.75C94.513 14.25 95.463 14 96.4797 14ZM118.406 20.775C118.406 21.2917 118.373 21.7583 118.306 22.175H107.781C107.865 23.275 108.273 24.1583 109.006 24.825C109.74 25.4917 110.64 25.825 111.706 25.825C113.24 25.825 114.323 25.1833 114.956 23.9H118.031C117.615 25.1667 116.856 26.2083 115.756 27.025C114.673 27.825 113.323 28.225 111.706 28.225C110.39 28.225 109.206 27.9333 108.156 27.35C107.123 26.75 106.306 25.9167 105.706 24.85C105.123 23.7667 104.831 22.5167 104.831 21.1C104.831 19.6833 105.115 18.4417 105.681 17.375C106.265 16.2917 107.073 15.4583 108.106 14.875C109.156 14.2917 110.356 14 111.706 14C113.006 14 114.165 14.2833 115.181 14.85C116.198 15.4167 116.99 16.2167 117.556 17.25C118.123 18.2667 118.406 19.4417 118.406 20.775ZM115.431 19.875C115.415 18.825 115.04 17.9833 114.306 17.35C113.573 16.7167 112.665 16.4 111.581 16.4C110.598 16.4 109.756 16.7167 109.056 17.35C108.356 17.9667 107.94 18.8083 107.806 19.875H115.431ZM131.03 16.55V24.175C131.03 24.6917 131.147 25.0667 131.38 25.3C131.63 25.5167 132.047 25.625 132.63 25.625H134.38V28H132.13C130.847 28 129.863 27.7 129.18 27.1C128.497 26.5 128.155 25.525 128.155 24.175V16.55H126.53V14.225H128.155V10.8H131.03V14.225H134.38V16.55H131.03ZM142.982 28.225C141.682 28.225 140.507 27.9333 139.457 27.35C138.407 26.75 137.582 25.9167 136.982 24.85C136.382 23.7667 136.082 22.5167 136.082 21.1C136.082 19.7 136.39 18.4583 137.007 17.375C137.624 16.2917 138.465 15.4583 139.532 14.875C140.599 14.2917 141.79 14 143.107 14C144.424 14 145.615 14.2917 146.682 14.875C147.749 15.4583 148.59 16.2917 149.207 17.375C149.824 18.4583 150.132 19.7 150.132 21.1C150.132 22.5 149.815 23.7417 149.182 24.825C148.549 25.9083 147.682 26.75 146.582 27.35C145.499 27.9333 144.299 28.225 142.982 28.225ZM142.982 25.75C143.715 25.75 144.399 25.575 145.032 25.225C145.682 24.875 146.207 24.35 146.607 23.65C147.007 22.95 147.207 22.1 147.207 21.1C147.207 20.1 147.015 19.2583 146.632 18.575C146.249 17.875 145.74 17.35 145.107 17C144.474 16.65 143.79 16.475 143.057 16.475C142.324 16.475 141.64 16.65 141.007 17C140.39 17.35 139.899 17.875 139.532 18.575C139.165 19.2583 138.982 20.1 138.982 21.1C138.982 22.5833 139.357 23.7333 140.107 24.55C140.874 25.35 141.832 25.75 142.982 25.75Z" fill="black"/>
<path d="M18.65 70.75V78H14.3C11.2 78 8.78333 77.25 7.05 75.75C5.31667 74.2167 4.45 71.7333 4.45 68.3V57.2H1.05V50.1H4.45V43.3H13V50.1H18.6V57.2H13V68.4C13 69.2333 13.2 69.8333 13.6 70.2C14 70.5667 14.6667 70.75 15.6 70.75H18.65ZM50.9625 50.1V78H42.4125V74.2C41.5458 75.4333 40.3625 76.4333 38.8625 77.2C37.3958 77.9333 35.7625 78.3 33.9625 78.3C31.8292 78.3 29.9458 77.8333 28.3125 76.9C26.6792 75.9333 25.4125 74.55 24.5125 72.75C23.6125 70.95 23.1625 68.8333 23.1625 66.4V50.1H31.6625V65.25C31.6625 67.1167 32.1458 68.5667 33.1125 69.6C34.0792 70.6333 35.3792 71.15 37.0125 71.15C38.6792 71.15 39.9958 70.6333 40.9625 69.6C41.9292 68.5667 42.4125 67.1167 42.4125 65.25V50.1H50.9625ZM65.6539 41V78H57.1039V41H65.6539ZM99.4 50.1V78H90.85V74.2C89.9833 75.4333 88.8 76.4333 87.3 77.2C85.8333 77.9333 84.2 78.3 82.4 78.3C80.2667 78.3 78.3833 77.8333 76.75 76.9C75.1167 75.9333 73.85 74.55 72.95 72.75C72.05 70.95 71.6 68.8333 71.6 66.4V50.1H80.1V65.25C80.1 67.1167 80.5833 68.5667 81.55 69.6C82.5167 70.6333 83.8167 71.15 85.45 71.15C87.1167 71.15 88.4333 70.6333 89.4 69.6C90.3667 68.5667 90.85 67.1167 90.85 65.25V50.1H99.4ZM134.041 50.1L116.541 91.25H107.341L113.741 77.05L102.391 50.1H111.941L118.391 67.55L124.791 50.1H134.041ZM135.433 64C135.433 61.1333 135.967 58.6167 137.033 56.45C138.133 54.2833 139.617 52.6167 141.483 51.45C143.35 50.2833 145.433 49.7 147.733 49.7C149.7 49.7 151.417 50.1 152.883 50.9C154.383 51.7 155.533 52.75 156.333 54.05V50.1H164.883V78H156.333V74.05C155.5 75.35 154.333 76.4 152.833 77.2C151.367 78 149.65 78.4 147.683 78.4C145.417 78.4 143.35 77.8167 141.483 76.65C139.617 75.45 138.133 73.7667 137.033 71.6C135.967 69.4 135.433 66.8667 135.433 64ZM156.333 64.05C156.333 61.9167 155.733 60.2333 154.533 59C153.367 57.7667 151.933 57.15 150.233 57.15C148.533 57.15 147.083 57.7667 145.883 59C144.717 60.2 144.133 61.8667 144.133 64C144.133 66.1333 144.717 67.8333 145.883 69.1C147.083 70.3333 148.533 70.95 150.233 70.95C151.933 70.95 153.367 70.3333 154.533 69.1C155.733 67.8667 156.333 66.1833 156.333 64.05ZM188.069 49.8C191.335 49.8 193.935 50.8667 195.869 53C197.835 55.1 198.819 58 198.819 61.7V78H190.319V62.85C190.319 60.9833 189.835 59.5333 188.869 58.5C187.902 57.4667 186.602 56.95 184.969 56.95C183.335 56.95 182.035 57.4667 181.069 58.5C180.102 59.5333 179.619 60.9833 179.619 62.85V78H171.069V50.1H179.619V53.8C180.485 52.5667 181.652 51.6 183.119 50.9C184.585 50.1667 186.235 49.8 188.069 49.8ZM208.76 78.4C207.26 78.4 206.027 77.9667 205.06 77.1C204.127 76.2 203.66 75.1 203.66 73.8C203.66 72.4667 204.127 71.35 205.06 70.45C206.027 69.55 207.26 69.1 208.76 69.1C210.227 69.1 211.427 69.55 212.36 70.45C213.327 71.35 213.81 72.4667 213.81 73.8C213.81 75.1 213.327 76.2 212.36 77.1C211.427 77.9667 210.227 78.4 208.76 78.4Z" fill="#007BFF"/>
<path d="M62.0862 460.666C63.7582 460.666 65.2028 460.981 66.4202 461.612C67.6522 462.228 68.5908 463.115 69.2362 464.274C69.8962 465.433 70.2262 466.797 70.2262 468.366C70.2262 469.935 69.8962 471.299 69.2362 472.458C68.5908 473.602 67.6522 474.482 66.4202 475.098C65.2028 475.699 63.7582 476 62.0862 476H57.3122V460.666H62.0862ZM62.0862 474.35C64.0662 474.35 65.5768 473.829 66.6182 472.788C67.6595 471.732 68.1802 470.258 68.1802 468.366C68.1802 466.459 67.6522 464.971 66.5962 463.9C65.5548 462.829 64.0515 462.294 62.0862 462.294H59.3142V474.35H62.0862ZM73.9009 461.986C73.5195 461.986 73.1969 461.854 72.9329 461.59C72.6689 461.326 72.5369 461.003 72.5369 460.622C72.5369 460.241 72.6689 459.918 72.9329 459.654C73.1969 459.39 73.5195 459.258 73.9009 459.258C74.2675 459.258 74.5755 459.39 74.8249 459.654C75.0889 459.918 75.2209 460.241 75.2209 460.622C75.2209 461.003 75.0889 461.326 74.8249 461.59C74.5755 461.854 74.2675 461.986 73.9009 461.986ZM74.8689 463.944V476H72.8669V463.944H74.8689ZM82.5489 476.198C81.6249 476.198 80.7962 476.044 80.0629 475.736C79.3296 475.413 78.7502 474.973 78.3249 474.416C77.8996 473.844 77.6649 473.191 77.6209 472.458H79.6889C79.7476 473.059 80.0262 473.551 80.5249 473.932C81.0382 474.313 81.7056 474.504 82.5269 474.504C83.2896 474.504 83.8909 474.335 84.3309 473.998C84.7709 473.661 84.9909 473.235 84.9909 472.722C84.9909 472.194 84.7562 471.805 84.2869 471.556C83.8176 471.292 83.0916 471.035 82.1089 470.786C81.2142 470.551 80.4809 470.317 79.9089 470.082C79.3516 469.833 78.8676 469.473 78.4569 469.004C78.0609 468.52 77.8629 467.889 77.8629 467.112C77.8629 466.496 78.0462 465.931 78.4129 465.418C78.7796 464.905 79.3002 464.501 79.9749 464.208C80.6496 463.9 81.4196 463.746 82.2849 463.746C83.6196 463.746 84.6976 464.083 85.5189 464.758C86.3402 465.433 86.7802 466.357 86.8389 467.53H84.8369C84.7929 466.899 84.5362 466.393 84.0669 466.012C83.6122 465.631 82.9962 465.44 82.2189 465.44C81.5002 465.44 80.9282 465.594 80.5029 465.902C80.0776 466.21 79.8649 466.613 79.8649 467.112C79.8649 467.508 79.9896 467.838 80.2389 468.102C80.5029 468.351 80.8256 468.557 81.2069 468.718C81.6029 468.865 82.1456 469.033 82.8349 469.224C83.7002 469.459 84.4042 469.693 84.9469 469.928C85.4896 470.148 85.9516 470.485 86.3329 470.94C86.7289 471.395 86.9342 471.989 86.9489 472.722C86.9489 473.382 86.7656 473.976 86.3989 474.504C86.0322 475.032 85.5116 475.45 84.8369 475.758C84.1769 476.051 83.4142 476.198 82.5489 476.198ZM89.0271 469.95C89.0271 468.703 89.2764 467.618 89.7751 466.694C90.2737 465.755 90.9631 465.029 91.8431 464.516C92.7377 464.003 93.7571 463.746 94.9011 463.746C96.3824 463.746 97.5997 464.105 98.5531 464.824C99.5211 465.543 100.159 466.54 100.467 467.816H98.3111C98.1057 467.083 97.7024 466.503 97.1011 466.078C96.5144 465.653 95.7811 465.44 94.9011 465.44C93.7571 465.44 92.8331 465.836 92.1291 466.628C91.4251 467.405 91.0731 468.513 91.0731 469.95C91.0731 471.402 91.4251 472.524 92.1291 473.316C92.8331 474.108 93.7571 474.504 94.9011 474.504C95.7811 474.504 96.5144 474.299 97.1011 473.888C97.6877 473.477 98.0911 472.891 98.3111 472.128H100.467C100.144 473.36 99.4991 474.35 98.5311 475.098C97.5631 475.831 96.3531 476.198 94.9011 476.198C93.7571 476.198 92.7377 475.941 91.8431 475.428C90.9631 474.915 90.2737 474.189 89.7751 473.25C89.2764 472.311 89.0271 471.211 89.0271 469.95ZM108.396 476.198C107.267 476.198 106.24 475.941 105.316 475.428C104.407 474.915 103.688 474.189 103.16 473.25C102.647 472.297 102.39 471.197 102.39 469.95C102.39 468.718 102.654 467.633 103.182 466.694C103.725 465.741 104.458 465.015 105.382 464.516C106.306 464.003 107.34 463.746 108.484 463.746C109.628 463.746 110.662 464.003 111.586 464.516C112.51 465.015 113.236 465.733 113.764 466.672C114.307 467.611 114.578 468.703 114.578 469.95C114.578 471.197 114.3 472.297 113.742 473.25C113.2 474.189 112.459 474.915 111.52 475.428C110.582 475.941 109.54 476.198 108.396 476.198ZM108.396 474.438C109.115 474.438 109.79 474.269 110.42 473.932C111.051 473.595 111.557 473.089 111.938 472.414C112.334 471.739 112.532 470.918 112.532 469.95C112.532 468.982 112.342 468.161 111.96 467.486C111.579 466.811 111.08 466.313 110.464 465.99C109.848 465.653 109.181 465.484 108.462 465.484C107.729 465.484 107.054 465.653 106.438 465.99C105.837 466.313 105.353 466.811 104.986 467.486C104.62 468.161 104.436 468.982 104.436 469.95C104.436 470.933 104.612 471.761 104.964 472.436C105.331 473.111 105.815 473.617 106.416 473.954C107.018 474.277 107.678 474.438 108.396 474.438ZM121.699 474.152L125.439 463.944H127.573L122.843 476H120.511L115.781 463.944H117.937L121.699 474.152ZM140.543 469.51C140.543 469.891 140.521 470.295 140.477 470.72H130.841C130.914 471.908 131.317 472.839 132.051 473.514C132.799 474.174 133.701 474.504 134.757 474.504C135.622 474.504 136.341 474.306 136.913 473.91C137.499 473.499 137.91 472.957 138.145 472.282H140.301C139.978 473.441 139.333 474.387 138.365 475.12C137.397 475.839 136.194 476.198 134.757 476.198C133.613 476.198 132.586 475.941 131.677 475.428C130.782 474.915 130.078 474.189 129.565 473.25C129.051 472.297 128.795 471.197 128.795 469.95C128.795 468.703 129.044 467.611 129.543 466.672C130.041 465.733 130.738 465.015 131.633 464.516C132.542 464.003 133.583 463.746 134.757 463.746C135.901 463.746 136.913 463.995 137.793 464.494C138.673 464.993 139.347 465.682 139.817 466.562C140.301 467.427 140.543 468.41 140.543 469.51ZM138.475 469.092C138.475 468.329 138.306 467.677 137.969 467.134C137.631 466.577 137.169 466.159 136.583 465.88C136.011 465.587 135.373 465.44 134.669 465.44C133.657 465.44 132.791 465.763 132.073 466.408C131.369 467.053 130.965 467.948 130.863 469.092H138.475ZM145.187 465.902C145.539 465.213 146.038 464.677 146.683 464.296C147.343 463.915 148.143 463.724 149.081 463.724V465.792H148.553C146.309 465.792 145.187 467.009 145.187 469.444V476H143.185V463.944H145.187V465.902ZM167.641 463.944L160.381 481.676H158.313L160.689 475.868L155.827 463.944H158.049L161.833 473.712L165.573 463.944H167.641ZM174.912 476.198C173.783 476.198 172.756 475.941 171.832 475.428C170.923 474.915 170.204 474.189 169.676 473.25C169.163 472.297 168.906 471.197 168.906 469.95C168.906 468.718 169.17 467.633 169.698 466.694C170.241 465.741 170.974 465.015 171.898 464.516C172.822 464.003 173.856 463.746 175 463.746C176.144 463.746 177.178 464.003 178.102 464.516C179.026 465.015 179.752 465.733 180.28 466.672C180.823 467.611 181.094 468.703 181.094 469.95C181.094 471.197 180.815 472.297 180.258 473.25C179.715 474.189 178.975 474.915 178.036 475.428C177.097 475.941 176.056 476.198 174.912 476.198ZM174.912 474.438C175.631 474.438 176.305 474.269 176.936 473.932C177.567 473.595 178.073 473.089 178.454 472.414C178.85 471.739 179.048 470.918 179.048 469.95C179.048 468.982 178.857 468.161 178.476 467.486C178.095 466.811 177.596 466.313 176.98 465.99C176.364 465.653 175.697 465.484 174.978 465.484C174.245 465.484 173.57 465.653 172.954 465.99C172.353 466.313 171.869 466.811 171.502 467.486C171.135 468.161 170.952 468.982 170.952 469.95C170.952 470.933 171.128 471.761 171.48 472.436C171.847 473.111 172.331 473.617 172.932 473.954C173.533 474.277 174.193 474.438 174.912 474.438ZM194.418 463.944V476H192.416V474.218C192.035 474.834 191.5 475.318 190.81 475.67C190.136 476.007 189.388 476.176 188.566 476.176C187.628 476.176 186.784 475.985 186.036 475.604C185.288 475.208 184.694 474.621 184.254 473.844C183.829 473.067 183.616 472.121 183.616 471.006V463.944H185.596V470.742C185.596 471.93 185.897 472.847 186.498 473.492C187.1 474.123 187.921 474.438 188.962 474.438C190.033 474.438 190.876 474.108 191.492 473.448C192.108 472.788 192.416 471.827 192.416 470.566V463.944H194.418ZM199.8 465.902C200.152 465.213 200.651 464.677 201.296 464.296C201.956 463.915 202.756 463.724 203.694 463.724V465.792H203.166C200.922 465.792 199.8 467.009 199.8 469.444V476H197.798V463.944H199.8V465.902ZM212.905 461.986C212.523 461.986 212.201 461.854 211.937 461.59C211.673 461.326 211.541 461.003 211.541 460.622C211.541 460.241 211.673 459.918 211.937 459.654C212.201 459.39 212.523 459.258 212.905 459.258C213.271 459.258 213.579 459.39 213.829 459.654C214.093 459.918 214.225 460.241 214.225 460.622C214.225 461.003 214.093 461.326 213.829 461.59C213.579 461.854 213.271 461.986 212.905 461.986ZM213.873 463.944V476H211.871V463.944H213.873ZM216.537 469.928C216.537 468.696 216.786 467.618 217.285 466.694C217.783 465.755 218.465 465.029 219.331 464.516C220.211 464.003 221.193 463.746 222.279 463.746C223.217 463.746 224.09 463.966 224.897 464.406C225.703 464.831 226.319 465.396 226.745 466.1V459.72H228.769V476H226.745V473.734C226.349 474.453 225.762 475.047 224.985 475.516C224.207 475.971 223.298 476.198 222.257 476.198C221.186 476.198 220.211 475.934 219.331 475.406C218.465 474.878 217.783 474.137 217.285 473.184C216.786 472.231 216.537 471.145 216.537 469.928ZM226.745 469.95C226.745 469.041 226.561 468.249 226.195 467.574C225.828 466.899 225.329 466.386 224.699 466.034C224.083 465.667 223.401 465.484 222.653 465.484C221.905 465.484 221.223 465.66 220.607 466.012C219.991 466.364 219.499 466.877 219.133 467.552C218.766 468.227 218.583 469.019 218.583 469.928C218.583 470.852 218.766 471.659 219.133 472.348C219.499 473.023 219.991 473.543 220.607 473.91C221.223 474.262 221.905 474.438 222.653 474.438C223.401 474.438 224.083 474.262 224.699 473.91C225.329 473.543 225.828 473.023 226.195 472.348C226.561 471.659 226.745 470.859 226.745 469.95ZM243.152 469.51C243.152 469.891 243.13 470.295 243.086 470.72H233.45C233.523 471.908 233.927 472.839 234.66 473.514C235.408 474.174 236.31 474.504 237.366 474.504C238.231 474.504 238.95 474.306 239.522 473.91C240.109 473.499 240.519 472.957 240.754 472.282H242.91C242.587 473.441 241.942 474.387 240.974 475.12C240.006 475.839 238.803 476.198 237.366 476.198C236.222 476.198 235.195 475.941 234.286 475.428C233.391 474.915 232.687 474.189 232.174 473.25C231.661 472.297 231.404 471.197 231.404 469.95C231.404 468.703 231.653 467.611 232.152 466.672C232.651 465.733 233.347 465.015 234.242 464.516C235.151 464.003 236.193 463.746 237.366 463.746C238.51 463.746 239.522 463.995 240.402 464.494C241.282 464.993 241.957 465.682 242.426 466.562C242.91 467.427 243.152 468.41 243.152 469.51ZM241.084 469.092C241.084 468.329 240.915 467.677 240.578 467.134C240.241 466.577 239.779 466.159 239.192 465.88C238.62 465.587 237.982 465.44 237.278 465.44C236.266 465.44 235.401 465.763 234.682 466.408C233.978 467.053 233.575 467.948 233.472 469.092H241.084ZM245.047 469.928C245.047 468.696 245.296 467.618 245.795 466.694C246.293 465.755 246.975 465.029 247.841 464.516C248.721 464.003 249.696 463.746 250.767 463.746C251.823 463.746 252.739 463.973 253.517 464.428C254.294 464.883 254.873 465.455 255.255 466.144V463.944H257.279V476H255.255V473.756C254.859 474.46 254.265 475.047 253.473 475.516C252.695 475.971 251.786 476.198 250.745 476.198C249.674 476.198 248.706 475.934 247.841 475.406C246.975 474.878 246.293 474.137 245.795 473.184C245.296 472.231 245.047 471.145 245.047 469.928ZM255.255 469.95C255.255 469.041 255.071 468.249 254.705 467.574C254.338 466.899 253.839 466.386 253.209 466.034C252.593 465.667 251.911 465.484 251.163 465.484C250.415 465.484 249.733 465.66 249.117 466.012C248.501 466.364 248.009 466.877 247.643 467.552C247.276 468.227 247.093 469.019 247.093 469.928C247.093 470.852 247.276 471.659 247.643 472.348C248.009 473.023 248.501 473.543 249.117 473.91C249.733 474.262 250.415 474.438 251.163 474.438C251.911 474.438 252.593 474.262 253.209 473.91C253.839 473.543 254.338 473.023 254.705 472.348C255.071 471.659 255.255 470.859 255.255 469.95ZM262.664 459.72V476H260.662V459.72H262.664ZM74.1599 488.188C74.5705 487.469 75.1719 486.883 75.9639 486.428C76.7559 485.973 77.6579 485.746 78.6699 485.746C79.7552 485.746 80.7305 486.003 81.5959 486.516C82.4612 487.029 83.1432 487.755 83.6419 488.694C84.1405 489.618 84.3899 490.696 84.3899 491.928C84.3899 493.145 84.1405 494.231 83.6419 495.184C83.1432 496.137 82.4539 496.878 81.5739 497.406C80.7085 497.934 79.7405 498.198 78.6699 498.198C77.6285 498.198 76.7119 497.971 75.9199 497.516C75.1425 497.061 74.5559 496.482 74.1599 495.778V498H72.1579V481.72H74.1599V488.188ZM82.3439 491.928C82.3439 491.019 82.1605 490.227 81.7939 489.552C81.4272 488.877 80.9285 488.364 80.2979 488.012C79.6819 487.66 78.9999 487.484 78.2519 487.484C77.5185 487.484 76.8365 487.667 76.2059 488.034C75.5899 488.386 75.0912 488.907 74.7099 489.596C74.3432 490.271 74.1599 491.055 74.1599 491.95C74.1599 492.859 74.3432 493.659 74.7099 494.348C75.0912 495.023 75.5899 495.543 76.2059 495.91C76.8365 496.262 77.5185 496.438 78.2519 496.438C78.9999 496.438 79.6819 496.262 80.2979 495.91C80.9285 495.543 81.4272 495.023 81.7939 494.348C82.1605 493.659 82.3439 492.852 82.3439 491.928ZM92.2831 498.198C91.1537 498.198 90.1271 497.941 89.2031 497.428C88.2937 496.915 87.5751 496.189 87.0471 495.25C86.5337 494.297 86.2771 493.197 86.2771 491.95C86.2771 490.718 86.5411 489.633 87.0691 488.694C87.6117 487.741 88.3451 487.015 89.2691 486.516C90.1931 486.003 91.2271 485.746 92.3711 485.746C93.5151 485.746 94.5491 486.003 95.4731 486.516C96.3971 487.015 97.1231 487.733 97.6511 488.672C98.1937 489.611 98.4651 490.703 98.4651 491.95C98.4651 493.197 98.1864 494.297 97.6291 495.25C97.0864 496.189 96.3457 496.915 95.4071 497.428C94.4684 497.941 93.4271 498.198 92.2831 498.198ZM92.2831 496.438C93.0017 496.438 93.6764 496.269 94.3071 495.932C94.9377 495.595 95.4437 495.089 95.8251 494.414C96.2211 493.739 96.4191 492.918 96.4191 491.95C96.4191 490.982 96.2284 490.161 95.8471 489.486C95.4657 488.811 94.9671 488.313 94.3511 487.99C93.7351 487.653 93.0677 487.484 92.3491 487.484C91.6157 487.484 90.9411 487.653 90.3251 487.99C89.7237 488.313 89.2397 488.811 88.8731 489.486C88.5064 490.161 88.3231 490.982 88.3231 491.95C88.3231 492.933 88.4991 493.761 88.8511 494.436C89.2177 495.111 89.7017 495.617 90.3031 495.954C90.9044 496.277 91.5644 496.438 92.2831 496.438ZM100.349 491.928C100.349 490.696 100.599 489.618 101.097 488.694C101.596 487.755 102.278 487.029 103.143 486.516C104.023 486.003 104.999 485.746 106.069 485.746C107.125 485.746 108.042 485.973 108.819 486.428C109.597 486.883 110.176 487.455 110.557 488.144V485.944H112.581V498H110.557V495.756C110.161 496.46 109.567 497.047 108.775 497.516C107.998 497.971 107.089 498.198 106.047 498.198C104.977 498.198 104.009 497.934 103.143 497.406C102.278 496.878 101.596 496.137 101.097 495.184C100.599 494.231 100.349 493.145 100.349 491.928ZM110.557 491.95C110.557 491.041 110.374 490.249 110.007 489.574C109.641 488.899 109.142 488.386 108.511 488.034C107.895 487.667 107.213 487.484 106.465 487.484C105.717 487.484 105.035 487.66 104.419 488.012C103.803 488.364 103.312 488.877 102.945 489.552C102.579 490.227 102.395 491.019 102.395 491.928C102.395 492.852 102.579 493.659 102.945 494.348C103.312 495.023 103.803 495.543 104.419 495.91C105.035 496.262 105.717 496.438 106.465 496.438C107.213 496.438 107.895 496.262 108.511 495.91C109.142 495.543 109.641 495.023 110.007 494.348C110.374 493.659 110.557 492.859 110.557 491.95ZM117.967 487.902C118.319 487.213 118.817 486.677 119.463 486.296C120.123 485.915 120.922 485.724 121.861 485.724V487.792H121.333C119.089 487.792 117.967 489.009 117.967 491.444V498H115.965V485.944H117.967V487.902ZM123.424 491.928C123.424 490.696 123.673 489.618 124.172 488.694C124.67 487.755 125.352 487.029 126.218 486.516C127.098 486.003 128.08 485.746 129.166 485.746C130.104 485.746 130.977 485.966 131.784 486.406C132.59 486.831 133.206 487.396 133.632 488.1V481.72H135.656V498H133.632V495.734C133.236 496.453 132.649 497.047 131.872 497.516C131.094 497.971 130.185 498.198 129.144 498.198C128.073 498.198 127.098 497.934 126.218 497.406C125.352 496.878 124.67 496.137 124.172 495.184C123.673 494.231 123.424 493.145 123.424 491.928ZM133.632 491.95C133.632 491.041 133.448 490.249 133.082 489.574C132.715 488.899 132.216 488.386 131.586 488.034C130.97 487.667 130.288 487.484 129.54 487.484C128.792 487.484 128.11 487.66 127.494 488.012C126.878 488.364 126.386 488.877 126.02 489.552C125.653 490.227 125.47 491.019 125.47 491.928C125.47 492.852 125.653 493.659 126.02 494.348C126.386 495.023 126.878 495.543 127.494 495.91C128.11 496.262 128.792 496.438 129.54 496.438C130.288 496.438 130.97 496.262 131.586 495.91C132.216 495.543 132.715 495.023 133.082 494.348C133.448 493.659 133.632 492.859 133.632 491.95ZM140.073 483.986C139.691 483.986 139.369 483.854 139.105 483.59C138.841 483.326 138.709 483.003 138.709 482.622C138.709 482.241 138.841 481.918 139.105 481.654C139.369 481.39 139.691 481.258 140.073 481.258C140.439 481.258 140.747 481.39 140.997 481.654C141.261 481.918 141.393 482.241 141.393 482.622C141.393 483.003 141.261 483.326 140.997 483.59C140.747 483.854 140.439 483.986 140.073 483.986ZM141.041 485.944V498H139.039V485.944H141.041ZM150.327 485.724C151.793 485.724 152.981 486.171 153.891 487.066C154.8 487.946 155.255 489.222 155.255 490.894V498H153.275V491.18C153.275 489.977 152.974 489.061 152.373 488.43C151.771 487.785 150.95 487.462 149.909 487.462C148.853 487.462 148.009 487.792 147.379 488.452C146.763 489.112 146.455 490.073 146.455 491.334V498H144.453V485.944H146.455V487.66C146.851 487.044 147.386 486.567 148.061 486.23C148.75 485.893 149.505 485.724 150.327 485.724ZM163.497 485.746C164.538 485.746 165.448 485.973 166.225 486.428C167.017 486.883 167.604 487.455 167.985 488.144V485.944H170.009V498.264C170.009 499.364 169.774 500.339 169.305 501.19C168.836 502.055 168.161 502.73 167.281 503.214C166.416 503.698 165.404 503.94 164.245 503.94C162.661 503.94 161.341 503.566 160.285 502.818C159.229 502.07 158.606 501.051 158.415 499.76H160.395C160.615 500.493 161.07 501.08 161.759 501.52C162.448 501.975 163.277 502.202 164.245 502.202C165.345 502.202 166.24 501.857 166.929 501.168C167.633 500.479 167.985 499.511 167.985 498.264V495.734C167.589 496.438 167.002 497.025 166.225 497.494C165.448 497.963 164.538 498.198 163.497 498.198C162.426 498.198 161.451 497.934 160.571 497.406C159.706 496.878 159.024 496.137 158.525 495.184C158.026 494.231 157.777 493.145 157.777 491.928C157.777 490.696 158.026 489.618 158.525 488.694C159.024 487.755 159.706 487.029 160.571 486.516C161.451 486.003 162.426 485.746 163.497 485.746ZM167.985 491.95C167.985 491.041 167.802 490.249 167.435 489.574C167.068 488.899 166.57 488.386 165.939 488.034C165.323 487.667 164.641 487.484 163.893 487.484C163.145 487.484 162.463 487.66 161.847 488.012C161.231 488.364 160.74 488.877 160.373 489.552C160.006 490.227 159.823 491.019 159.823 491.928C159.823 492.852 160.006 493.659 160.373 494.348C160.74 495.023 161.231 495.543 161.847 495.91C162.463 496.262 163.145 496.438 163.893 496.438C164.641 496.438 165.323 496.262 165.939 495.91C166.57 495.543 167.068 495.023 167.435 494.348C167.802 493.659 167.985 492.859 167.985 491.95ZM185.241 485.724C186.151 485.724 186.972 485.922 187.705 486.318C188.439 486.699 189.011 487.279 189.421 488.056C189.847 488.833 190.059 489.779 190.059 490.894V498H188.079V491.18C188.079 489.977 187.779 489.061 187.177 488.43C186.576 487.785 185.755 487.462 184.713 487.462C183.657 487.462 182.814 487.792 182.183 488.452C181.567 489.112 181.259 490.073 181.259 491.334V498H179.257V481.72H181.259V487.66C181.655 487.044 182.198 486.567 182.887 486.23C183.591 485.893 184.376 485.724 185.241 485.724ZM198.588 498.198C197.458 498.198 196.432 497.941 195.508 497.428C194.598 496.915 193.88 496.189 193.352 495.25C192.838 494.297 192.582 493.197 192.582 491.95C192.582 490.718 192.846 489.633 193.374 488.694C193.916 487.741 194.65 487.015 195.574 486.516C196.498 486.003 197.532 485.746 198.676 485.746C199.82 485.746 200.854 486.003 201.778 486.516C202.702 487.015 203.428 487.733 203.956 488.672C204.498 489.611 204.77 490.703 204.77 491.95C204.77 493.197 204.491 494.297 203.934 495.25C203.391 496.189 202.65 496.915 201.712 497.428C200.773 497.941 199.732 498.198 198.588 498.198ZM198.588 496.438C199.306 496.438 199.981 496.269 200.612 495.932C201.242 495.595 201.748 495.089 202.13 494.414C202.526 493.739 202.724 492.918 202.724 491.95C202.724 490.982 202.533 490.161 202.152 489.486C201.77 488.811 201.272 488.313 200.656 487.99C200.04 487.653 199.372 487.484 198.654 487.484C197.92 487.484 197.246 487.653 196.63 487.99C196.028 488.313 195.544 488.811 195.178 489.486C194.811 490.161 194.628 490.982 194.628 491.95C194.628 492.933 194.804 493.761 195.156 494.436C195.522 495.111 196.006 495.617 196.608 495.954C197.209 496.277 197.869 496.438 198.588 496.438ZM218.094 485.944V498H216.092V496.218C215.711 496.834 215.175 497.318 214.486 497.67C213.811 498.007 213.063 498.176 212.242 498.176C211.303 498.176 210.46 497.985 209.712 497.604C208.964 497.208 208.37 496.621 207.93 495.844C207.505 495.067 207.292 494.121 207.292 493.006V485.944H209.272V492.742C209.272 493.93 209.573 494.847 210.174 495.492C210.775 496.123 211.597 496.438 212.638 496.438C213.709 496.438 214.552 496.108 215.168 495.448C215.784 494.788 216.092 493.827 216.092 492.566V485.944H218.094ZM225.742 498.198C224.818 498.198 223.99 498.044 223.256 497.736C222.523 497.413 221.944 496.973 221.518 496.416C221.093 495.844 220.858 495.191 220.814 494.458H222.882C222.941 495.059 223.22 495.551 223.718 495.932C224.232 496.313 224.899 496.504 225.72 496.504C226.483 496.504 227.084 496.335 227.524 495.998C227.964 495.661 228.184 495.235 228.184 494.722C228.184 494.194 227.95 493.805 227.48 493.556C227.011 493.292 226.285 493.035 225.302 492.786C224.408 492.551 223.674 492.317 223.102 492.082C222.545 491.833 222.061 491.473 221.65 491.004C221.254 490.52 221.056 489.889 221.056 489.112C221.056 488.496 221.24 487.931 221.606 487.418C221.973 486.905 222.494 486.501 223.168 486.208C223.843 485.9 224.613 485.746 225.478 485.746C226.813 485.746 227.891 486.083 228.712 486.758C229.534 487.433 229.974 488.357 230.032 489.53H228.03C227.986 488.899 227.73 488.393 227.26 488.012C226.806 487.631 226.19 487.44 225.412 487.44C224.694 487.44 224.122 487.594 223.696 487.902C223.271 488.21 223.058 488.613 223.058 489.112C223.058 489.508 223.183 489.838 223.432 490.102C223.696 490.351 224.019 490.557 224.4 490.718C224.796 490.865 225.339 491.033 226.028 491.224C226.894 491.459 227.598 491.693 228.14 491.928C228.683 492.148 229.145 492.485 229.526 492.94C229.922 493.395 230.128 493.989 230.142 494.722C230.142 495.382 229.959 495.976 229.592 496.504C229.226 497.032 228.705 497.45 228.03 497.758C227.37 498.051 226.608 498.198 225.742 498.198ZM243.968 491.51C243.968 491.891 243.946 492.295 243.902 492.72H234.266C234.34 493.908 234.743 494.839 235.476 495.514C236.224 496.174 237.126 496.504 238.182 496.504C239.048 496.504 239.766 496.306 240.338 495.91C240.925 495.499 241.336 494.957 241.57 494.282H243.726C243.404 495.441 242.758 496.387 241.79 497.12C240.822 497.839 239.62 498.198 238.182 498.198C237.038 498.198 236.012 497.941 235.102 497.428C234.208 496.915 233.504 496.189 232.99 495.25C232.477 494.297 232.22 493.197 232.22 491.95C232.22 490.703 232.47 489.611 232.968 488.672C233.467 487.733 234.164 487.015 235.058 486.516C235.968 486.003 237.009 485.746 238.182 485.746C239.326 485.746 240.338 485.995 241.218 486.494C242.098 486.993 242.773 487.682 243.242 488.562C243.726 489.427 243.968 490.41 243.968 491.51ZM241.9 491.092C241.9 490.329 241.732 489.677 241.394 489.134C241.057 488.577 240.595 488.159 240.008 487.88C239.436 487.587 238.798 487.44 238.094 487.44C237.082 487.44 236.217 487.763 235.498 488.408C234.794 489.053 234.391 489.948 234.288 491.092H241.9ZM247.249 498.132C246.868 498.132 246.545 498 246.281 497.736C246.017 497.472 245.885 497.149 245.885 496.768C245.885 496.387 246.017 496.064 246.281 495.8C246.545 495.536 246.868 495.404 247.249 495.404C247.616 495.404 247.924 495.536 248.173 495.8C248.437 496.064 248.569 496.387 248.569 496.768C248.569 497.149 248.437 497.472 248.173 497.736C247.924 498 247.616 498.132 247.249 498.132Z" fill="black"/>
<defs>
<clipPath id="clip0_305_2000">
<rect width="320" height="300" fill="white" transform="translate(0 116)"/>
</clipPath>
</defs>
</svg>
